{
classes = (
{
automatic = 1;
code = "A B C D E F G H I J K L M N O P Q R S T U V W X Y Z";
name = Uppercase;
}
);
copyright = "This Font Software is licensed under the SIL Open Font License, Version 1.1.";
customParameters = (
{
name = openTypeOS2Type;
value = (
    3,
    8
);}
);
date = "2012-07-27 19:04:09 +0000";
designer = "Abbie Gonzalez";
designerURL = "http://abbiecod.es";
familyName = "AlphaSymbolic";
featurePrefixes = (
{
automatic = 1;
code = "languagesystem DFLT dflt;\012languagesystem latn dflt;\012languagesystem grek dflt;\012";
name = Languagesystems;
}
);
features = (
{
automatic = 1;
code = "feature sups;\012feature frac;\012feature ordn;";
name = aalt;
},
{
automatic = 1;
code = "sub zero by zerosuperior;\012sub one by onesuperior;\012sub two by twosuperior;\012sub three by threesuperior;\012sub four by foursuperior;\012sub five by fivesuperior;\012sub six by sixsuperior;\012sub seven by sevensuperior;\012sub eight by eightsuperior;\012sub nine by ninesuperior;";
name = sups;
},
{
automatic = 1;
code = "sub one slash eight by oneeighth;\012sub one slash four by onequarter;\012sub three slash eight by threeeighths;\012sub one slash two by onehalf;\012sub five slash eight by fiveeighths;\012sub three slash four by threequarters;\012sub seven slash eight by seveneighths;";
name = frac;
},
{
automatic = 1;
code = "sub [zero one two three four five six seven eight nine] [A a]' by ordfeminine;\012sub [zero one two three four five six seven eight nine] [O o]' by ordmasculine;";
name = ordn;
},
{
automatic = 1;
code = "pos @Uppercase <5 0 10 0>;";
name = cpsp;
}
);
fontMaster = (
{
alignmentZones = (
"{1000, 16}",
"{800, 16}",
"{700, 16}",
"{500, 16}",
"{0, -15}",
"{-200, -16}"
);
ascender = 1000;
capHeight = 700;
descender = "-200";
guideLines = (
{
angle = 0;
position = "{311.41969709072976, 390.6822239842071}";
},
{
angle = 0;
position = "{5, 638}";
},
{
angle = 0;
position = "{211, 145}";
},
{
angle = 0;
position = "{168, 865}";
}
);

glyphs = (
{
color = 7;
glyphname = A;
lastChange = "2012-07-29 01:59:48 +0000";
layers = (
{
anchors = (
{
name = ogonek;
position = "{540, 10}";
},
{
name = top;
position = "{300, 700}";
}
);
layerId = "C6C3B4F4-9047-4AEA-9672-C83927A9B560";
name = Regular;
paths = (
{
closed = 1;
nodes = (
"437 145 OFFCURVE",
"548 255 OFFCURVE",
"548 392 CURVE SMOOTH",
"548 528 OFFCURVE",
"438 638 OFFCURVE",
"298 638 CURVE SMOOTH",
"163 638 OFFCURVE",
"54 528 OFFCURVE",
"54 392 CURVE SMOOTH",
"54 255 OFFCURVE",
"163 145 OFFCURVE",
"298 145 CURVE SMOOTH"
);
},
{
closed = 1;
nodes = (
"228 53 LINE",
"374 53 LINE",
"374 729 LINE",
"228 729 LINE"
);
}
);
width = 600;
}
);
leftKerningGroup = Standard;
rightKerningGroup = Standard;
unicode = 0041;
},
{
color = 7;
glyphname = B;
lastChange = "2012-07-28 23:24:53 +0000";
layers = (
{
layerId = "C6C3B4F4-9047-4AEA-9672-C83927A9B560";
name = Regular;
paths = (
{
closed = 1;
nodes = (
"437 145 OFFCURVE",
"548 255 OFFCURVE",
"548 392 CURVE SMOOTH",
"548 528 OFFCURVE",
"438 638 OFFCURVE",
"298 638 CURVE SMOOTH",
"163 638 OFFCURVE",
"54 528 OFFCURVE",
"54 392 CURVE SMOOTH",
"54 255 OFFCURVE",
"163 145 OFFCURVE",
"298 145 CURVE SMOOTH"
);
},
{
closed = 1;
nodes = (
"228 -131 LINE",
"374 -131 LINE",
"374 931 LINE",
"228 931 LINE"
);
}
);
width = 600;
}
);
leftKerningGroup = Standard;
rightKerningGroup = Standard;
unicode = 0042;
},
{
color = 7;
glyphname = C;
lastChange = "2012-07-29 01:59:48 +0000";
layers = (
{
anchors = (
{
name = bottom;
position = "{300, 0}";
},
{
name = top;
position = "{300, 700}";
}
);
background = {
paths = (
{
closed = 1;
nodes = (
"149 622 OFFCURVE",
"29 501 OFFCURVE",
"29 351 CURVE SMOOTH",
"29 200 OFFCURVE",
"149 79 OFFCURVE",
"298 79 CURVE SMOOTH",
"451 79 OFFCURVE",
"573 200 OFFCURVE",
"573 351 CURVE SMOOTH",
"573 501 OFFCURVE",
"452 622 OFFCURVE",
"298 622 CURVE SMOOTH"
);
},
{
closed = 1;
nodes = (
"361 0 LINE",
"241 0 LINE",
"241 700 LINE SMOOTH",
"361 700 LINE"
);
}
);
};
layerId = "C6C3B4F4-9047-4AEA-9672-C83927A9B560";
name = Regular;
paths = (
{
closed = 1;
nodes = (
"55 274 OFFCURVE",
"137 175 OFFCURVE",
"247 151 CURVE",
"247 634 LINE",
"137 610 OFFCURVE",
"55 511 OFFCURVE",
"55 393 CURVE SMOOTH"
);
},
{
closed = 1;
nodes = (
"549 510 OFFCURVE",
"468 608 OFFCURVE",
"357 633 CURVE",
"357 152 LINE",
"467 178 OFFCURVE",
"549 275 OFFCURVE",
"549 393 CURVE SMOOTH"
);
}
);
width = 600;
}
);
leftKerningGroup = Standard;
rightKerningGroup = Standard;
unicode = 0043;
},
{
color = 7;
glyphname = D;
lastChange = "2012-07-29 01:59:48 +0000";
layers = (
{
anchors = (
{
name = center;
position = "{300, 350}";
},
{
name = top;
position = "{300, 700}";
}
);
layerId = "C6C3B4F4-9047-4AEA-9672-C83927A9B560";
name = Regular;
paths = (
{
closed = 1;
nodes = (
"77 167 LINE",
"526 167 LINE",
"526 617 LINE",
"77 617 LINE"
);
},
{
closed = 1;
nodes = (
"228 -131 LINE",
"374 -131 LINE",
"374 931 LINE",
"228 931 LINE"
);
}
);
width = 600;
}
);
leftKerningGroup = Standard;
rightKerningGroup = Standard;
unicode = 0044;
},
{
color = 7;
glyphname = E;
lastChange = "2012-07-29 01:59:48 +0000";
layers = (
{
anchors = (
{
name = bottom;
position = "{300, 0}";
},
{
name = ogonek;
position = "{540, 10}";
},
{
name = top;
position = "{300, 700}";
}
);
layerId = "C6C3B4F4-9047-4AEA-9672-C83927A9B560";
name = Regular;
paths = (
{
closed = 1;
nodes = (
"373 560 OFFCURVE",
"438 509 OFFCURVE",
"458 438 CURVE",
"538 438 LINE",
"516 552 OFFCURVE",
"416 638 OFFCURVE",
"292 638 CURVE SMOOTH",
"173 638 OFFCURVE",
"74 552 OFFCURVE",
"52 438 CURVE",
"132 438 LINE",
"152 509 OFFCURVE",
"216 560 OFFCURVE",
"292 560 CURVE SMOOTH"
);
},
{
closed = 1;
nodes = (
"-8 438 LINE",
"-8 345 LINE",
"52 345 LINE",
"50 360 OFFCURVE",
"48 376 OFFCURVE",
"48 392 CURVE SMOOTH",
"48 408 OFFCURVE",
"49 423 OFFCURVE",
"52 438 CURVE"
);
},
{
closed = 1;
nodes = (
"126 376 OFFCURVE",
"128 360 OFFCURVE",
"132 345 CURVE",
"458 345 LINE",
"462 360 OFFCURVE",
"464 376 OFFCURVE",
"464 392 CURVE SMOOTH",
"464 408 OFFCURVE",
"462 423 OFFCURVE",
"458 438 CURVE",
"132 438 LINE",
"128 423 OFFCURVE",
"126 408 OFFCURVE",
"126 392 CURVE SMOOTH"
);
},
{
closed = 1;
nodes = (
"538 438 LINE",
"541 423 OFFCURVE",
"542 408 OFFCURVE",
"542 392 CURVE SMOOTH",
"542 376 OFFCURVE",
"540 360 OFFCURVE",
"538 345 CURVE",
"607 345 LINE",
"607 438 LINE"
);
},
{
closed = 1;
nodes = (
"216 223 OFFCURVE",
"152 274 OFFCURVE",
"132 345 CURVE",
"52 345 LINE",
"74 231 OFFCURVE",
"173 145 OFFCURVE",
"292 145 CURVE SMOOTH",
"415 145 OFFCURVE",
"516 231 OFFCURVE",
"538 345 CURVE",
"458 345 LINE",
"437 274 OFFCURVE",
"372 223 OFFCURVE",
"292 223 CURVE SMOOTH"
);
}
);
width = 600;
}
);
leftKerningGroup = Standard;
rightKerningGroup = Standard;
unicode = 0045;
},
{
color = 7;
glyphname = F;
lastChange = "2012-07-28 23:24:53 +0000";
layers = (
{
layerId = "C6C3B4F4-9047-4AEA-9672-C83927A9B560";
name = Regular;
paths = (
{
closed = 1;
nodes = (
"132 345 LINE",
"458 345 LINE",
"458 438 LINE",
"132 438 LINE"
);
},
{
closed = 1;
nodes = (
"359 -200 OFFCURVE",
"405 -155 OFFCURVE",
"405 -96 CURVE",
"405 -96 LINE",
"197 -96 LINE",
"197 -96 LINE",
"197 -155 OFFCURVE",
"242 -200 OFFCURVE",
"298 -200 CURVE SMOOTH"
);
},
{
closed = 1;
nodes = (
"242 1000 OFFCURVE",
"197 955 OFFCURVE",
"197 896 CURVE",
"197 896 LINE",
"405 896 LINE",
"405 896 LINE",
"405 955 OFFCURVE",
"359 1000 OFFCURVE",
"298 1000 CURVE SMOOTH"
);
},
{
closed = 1;
nodes = (
"228 -131 LINE",
"374 -131 LINE",
"374 931 LINE",
"228 931 LINE"
);
}
);
width = 600;
}
);
leftKerningGroup = Standard;
rightKerningGroup = Standard;
unicode = 0046;
},
{
color = 7;
glyphname = G;
lastChange = "2012-07-29 01:59:48 +0000";
layers = (
{
anchors = (
{
name = bottom;
position = "{300, 0}";
},
{
name = top;
position = "{300, 700}";
}
);
layerId = "C6C3B4F4-9047-4AEA-9672-C83927A9B560";
name = Regular;
paths = (
{
closed = 1;
nodes = (
"404 256 OFFCURVE",
"487 338 OFFCURVE",
"487 442 CURVE SMOOTH",
"487 545 OFFCURVE",
"405 627 OFFCURVE",
"298 627 CURVE SMOOTH",
"197 627 OFFCURVE",
"115 545 OFFCURVE",
"115 442 CURVE SMOOTH",
"115 338 OFFCURVE",
"197 256 OFFCURVE",
"298 256 CURVE SMOOTH"
);
},
{
closed = 1;
nodes = (
"228 -117 LINE",
"374 -117 LINE",
"374 559 LINE",
"228 559 LINE"
);
},
{
closed = 1;
nodes = (
"404 -204 OFFCURVE",
"487 -122 OFFCURVE",
"487 -18 CURVE SMOOTH",
"487 85 OFFCURVE",
"405 167 OFFCURVE",
"298 167 CURVE SMOOTH",
"197 167 OFFCURVE",
"115 85 OFFCURVE",
"115 -18 CURVE SMOOTH",
"115 -122 OFFCURVE",
"197 -204 OFFCURVE",
"298 -204 CURVE SMOOTH"
);
}
);
width = 600;
}
);
leftKerningGroup = Standard;
rightKerningGroup = Standard;
unicode = 0047;
},
{
color = 7;
glyphname = H;
lastChange = "2012-07-29 01:59:48 +0000";
layers = (
{
anchors = (
{
name = center;
position = "{300, 350}";
},
{
name = top;
position = "{300, 700}";
}
);
layerId = "C6C3B4F4-9047-4AEA-9672-C83927A9B560";
name = Regular;
paths = (
{
closed = 1;
nodes = (
"377 -132 LINE",
"377 140 LINE",
"231 140 LINE",
"231 -132 LINE"
);
},
{
closed = 1;
nodes = (
"231 932 LINE",
"231 634 LINE",
"377 634 LINE",
"377 932 LINE"
);
},
{
closed = 1;
nodes = (
"58 140 LINE",
"231 140 LINE",
"231 634 LINE",
"58 634 LINE"
);
},
{
closed = 1;
nodes = (
"377 634 LINE",
"377 140 LINE",
"551 140 LINE",
"551 634 LINE"
);
}
);
width = 600;
}
);
leftKerningGroup = Standard;
rightKerningGroup = Standard;
unicode = 0048;
},
{
color = 7;
glyphname = I;
lastChange = "2012-07-29 01:59:48 +0000";
layers = (
{
anchors = (
{
name = ogonek;
position = "{540, 10}";
},
{
name = top;
position = "{300, 700}";
}
);
layerId = "C6C3B4F4-9047-4AEA-9672-C83927A9B560";
name = Regular;
paths = (
{
closed = 1;
nodes = (
"228 145 LINE",
"374 145 LINE",
"374 638 LINE",
"228 638 LINE"
);
}
);
width = 600;
}
);
leftKerningGroup = Standard;
rightKerningGroup = Standard;
unicode = 0049;
},
{
color = 7;
glyphname = J;
lastChange = "2012-07-29 01:59:48 +0000";
layers = (
{
anchors = (
{
name = top;
position = "{300, 700}";
}
);
layerId = "C6C3B4F4-9047-4AEA-9672-C83927A9B560";
name = Regular;
paths = (
{
closed = 1;
nodes = (
"404 629 OFFCURVE",
"487 711 OFFCURVE",
"487 815 CURVE SMOOTH",
"487 918 OFFCURVE",
"405 1000 OFFCURVE",
"298 1000 CURVE SMOOTH",
"197 1000 OFFCURVE",
"115 918 OFFCURVE",
"115 815 CURVE SMOOTH",
"115 711 OFFCURVE",
"197 629 OFFCURVE",
"298 629 CURVE SMOOTH"
);
},
{
closed = 1;
nodes = (
"404 -204 OFFCURVE",
"487 -122 OFFCURVE",
"487 -18 CURVE SMOOTH",
"487 85 OFFCURVE",
"405 167 OFFCURVE",
"298 167 CURVE SMOOTH",
"197 167 OFFCURVE",
"115 85 OFFCURVE",
"115 -18 CURVE SMOOTH",
"115 -122 OFFCURVE",
"197 -204 OFFCURVE",
"298 -204 CURVE SMOOTH"
);
},
{
closed = 1;
nodes = (
"228 -180 LINE",
"374 -180 LINE",
"374 970 LINE",
"228 970 LINE"
);
}
);
width = 600;
}
);
leftKerningGroup = Standard;
rightKerningGroup = Standard;
unicode = 004A;
},
{
color = 7;
glyphname = K;
lastChange = "2012-07-29 01:59:48 +0000";
layers = (
{
anchors = (
{
name = bottom;
position = "{300, 0}";
},
{
name = top;
position = "{300, 700}";
}
);
layerId = "C6C3B4F4-9047-4AEA-9672-C83927A9B560";
name = Regular;
paths = (
{
closed = 1;
nodes = (
"374 931 LINE",
"374 -131 LINE",
"228 -131 LINE",
"228 931 LINE"
);
},
{
closed = 1;
nodes = (
"385 390 LINE",
"536 239 LINE",
"447 150 LINE",
"296 301 LINE",
"145 150 LINE",
"56 239 LINE",
"207 390 LINE",
"56 541 LINE",
"145 630 LINE",
"296 479 LINE",
"447 630 LINE",
"536 541 LINE"
);
}
);
width = 600;
}
);
leftKerningGroup = Standard;
rightKerningGroup = Standard;
unicode = 004B;
},
{
color = 7;
glyphname = L;
lastChange = "2012-07-29 01:59:48 +0000";
layers = (
{
anchors = (
{
name = bottom;
position = "{300, 0}";
},
{
name = top;
position = "{300, 700}";
}
);
layerId = "C6C3B4F4-9047-4AEA-9672-C83927A9B560";
name = Regular;
paths = (
{
closed = 1;
nodes = (
"228 -131 LINE",
"374 -131 LINE",
"374 931 LINE",
"228 931 LINE"
);
}
);
width = 600;
}
);
leftKerningGroup = Standard;
rightKerningGroup = Standard;
unicode = 004C;
},
{
color = 7;
glyphname = M;
lastChange = "2012-07-28 23:24:53 +0000";
layers = (
{
layerId = "C6C3B4F4-9047-4AEA-9672-C83927A9B560";
name = Regular;
paths = (
{
closed = 1;
nodes = (
"67 187 LINE",
"187 187 LINE",
"187 596 LINE",
"67 596 LINE"
);
},
{
closed = 1;
nodes = (
"415 187 LINE",
"535 187 LINE",
"535 596 LINE",
"415 596 LINE"
);
},
{
closed = 1;
nodes = (
"241 304 LINE",
"361 304 LINE",
"361 481 LINE",
"241 481 LINE"
);
},
{
closed = 1;
nodes = (
"160 130 OFFCURVE",
"187 155 OFFCURVE",
"187 187 CURVE",
"187 187 LINE SMOOTH",
"67 187 LINE",
"67 187 LINE",
"67 155 OFFCURVE",
"94 130 OFFCURVE",
"125 130 CURVE SMOOTH"
);
},
{
closed = 1;
nodes = (
"441 653 OFFCURVE",
"415 628 OFFCURVE",
"415 596 CURVE",
"415 596 LINE",
"535 596 LINE SMOOTH",
"535 596 LINE",
"535 628 OFFCURVE",
"507 653 OFFCURVE",
"472 653 CURVE SMOOTH"
);
},
{
closed = 1;
nodes = (
"507 130 OFFCURVE",
"535 155 OFFCURVE",
"535 187 CURVE",
"535 187 LINE SMOOTH",
"415 187 LINE",
"415 187 LINE",
"415 155 OFFCURVE",
"441 130 OFFCURVE",
"472 130 CURVE SMOOTH"
);
},
{
closed = 1;
nodes = (
"94 653 OFFCURVE",
"67 628 OFFCURVE",
"67 596 CURVE",
"67 596 LINE",
"187 596 LINE SMOOTH",
"187 596 LINE",
"187 628 OFFCURVE",
"160 653 OFFCURVE",
"125 653 CURVE SMOOTH"
);
}
);
width = 600;
}
);
leftKerningGroup = Standard;
rightKerningGroup = Standard;
unicode = 004D;
},
{
color = 7;
glyphname = N;
lastChange = "2012-07-29 01:59:48 +0000";
layers = (
{
anchors = (
{
name = bottom;
position = "{300, 0}";
},
{
name = top;
position = "{300, 700}";
}
);
layerId = "C6C3B4F4-9047-4AEA-9672-C83927A9B560";
name = Regular;
paths = (
{
closed = 1;
nodes = (
"347 78 OFFCURVE",
"412 131 OFFCURVE",
"420 206 CURVE",
"120 206 LINE",
"128 131 OFFCURVE",
"192 78 OFFCURVE",
"267 78 CURVE SMOOTH"
);
},
{
closed = 1;
nodes = (
"120 206 LINE",
"211 206 LINE",
"211 585 LINE",
"120 585 LINE"
);
},
{
closed = 1;
nodes = (
"328 206 LINE",
"420 206 LINE",
"420 585 LINE",
"328 585 LINE"
);
},
{
closed = 1;
nodes = (
"192 713 OFFCURVE",
"128 660 OFFCURVE",
"120 585 CURVE",
"420 585 LINE",
"412 660 OFFCURVE",
"347 713 OFFCURVE",
"267 713 CURVE SMOOTH"
);
}
);
width = 600;
}
);
leftKerningGroup = Standard;
rightKerningGroup = Standard;
unicode = 004E;
},
{
color = 7;
glyphname = O;
lastChange = "2012-07-29 01:59:48 +0000";
layers = (
{
anchors = (
{
name = top;
position = "{300, 700}";
}
);
layerId = "C6C3B4F4-9047-4AEA-9672-C83927A9B560";
name = Regular;
paths = (
{
closed = 1;
nodes = (
"437 145 OFFCURVE",
"548 255 OFFCURVE",
"548 392 CURVE SMOOTH",
"548 528 OFFCURVE",
"438 638 OFFCURVE",
"298 638 CURVE SMOOTH",
"163 638 OFFCURVE",
"54 528 OFFCURVE",
"54 392 CURVE SMOOTH",
"54 255 OFFCURVE",
"163 145 OFFCURVE",
"298 145 CURVE SMOOTH"
);
}
);
width = 600;
}
);
leftKerningGroup = Standard;
rightKerningGroup = Standard;
unicode = 004F;
},
{
color = 7;
glyphname = P;
lastChange = "2012-07-30 01:24:19 +0000";
layers = (
{
layerId = "C6C3B4F4-9047-4AEA-9672-C83927A9B560";
name = Regular;
paths = (
{
closed = 1;
nodes = (
"228 -131 LINE",
"374 -131 LINE",
"374 931 LINE",
"228 931 LINE"
);
},
{
closed = 1;
nodes = (
"260 1000 OFFCURVE",
"229 972 OFFCURVE",
"224 934 CURVE",
"378 934 LINE",
"373 972 OFFCURVE",
"341 1000 OFFCURVE",
"298 1000 CURVE SMOOTH"
);
},
{
closed = 1;
nodes = (
"342 -200 OFFCURVE",
"374 -172 OFFCURVE",
"379 -134 CURVE",
"225 -134 LINE",
"228 -170 OFFCURVE",
"260 -200 OFFCURVE",
"299 -200 CURVE SMOOTH"
);
},
{
closed = 1;
nodes = (
"588 485 OFFCURVE",
"539 544 OFFCURVE",
"471 551 CURVE",
"471 221 LINE",
"539 228 OFFCURVE",
"588 286 OFFCURVE",
"588 388 CURVE SMOOTH"
);
},
{
closed = 1;
nodes = (
"471 221 LINE",
"471 303 LINE",
"127 303 LINE",
"127 221 LINE"
);
},
{
closed = 1;
nodes = (
"471 468 LINE",
"471 551 LINE",
"127 551 LINE",
"127 468 LINE"
);
},
{
closed = 1;
nodes = (
"9 286 OFFCURVE",
"58 228 OFFCURVE",
"127 221 CURVE",
"127 551 LINE",
"58 544 OFFCURVE",
"9 485 OFFCURVE",
"9 388 CURVE SMOOTH"
);
}
);
width = 600;
}
);
leftKerningGroup = Standard;
rightKerningGroup = Standard;
unicode = 0050;
},
{
color = 7;
glyphname = Q;
lastChange = "2012-07-28 23:24:53 +0000";
layers = (
{
layerId = "C6C3B4F4-9047-4AEA-9672-C83927A9B560";
name = Regular;
paths = (
{
closed = 1;
nodes = (
"40 392 LINE",
"300 131 LINE",
"563 392 LINE",
"303 653 LINE"
);
},
{
closed = 1;
nodes = (
"228 -131 LINE",
"374 -131 LINE",
"374 920 LINE",
"228 920 LINE"
);
},
{
closed = 1;
nodes = (
"301 1000 LINE",
"218 920 LINE",
"384 920 LINE"
);
},
{
closed = 1;
nodes = (
"218 -131 LINE",
"301 -211 LINE",
"384 -131 LINE"
);
}
);
width = 600;
}
);
leftKerningGroup = Standard;
rightKerningGroup = Standard;
unicode = 0051;
},
{
color = 7;
glyphname = R;
lastChange = "2012-07-29 01:59:48 +0000";
layers = (
{
anchors = (
{
name = bottom;
position = "{300, 0}";
},
{
name = top;
position = "{300, 700}";
}
);
layerId = "C6C3B4F4-9047-4AEA-9672-C83927A9B560";
name = Regular;
paths = (
{
closed = 1;
nodes = (
"85 176 LINE",
"534 176 LINE",
"534 626 LINE",
"85 626 LINE"
);
},
{
closed = 1;
nodes = (
"174 266 LINE",
"174 536 LINE",
"444 536 LINE",
"444 266 LINE"
);
}
);
width = 600;
}
);
leftKerningGroup = Standard;
rightKerningGroup = Standard;
unicode = 0052;
},
{
color = 7;
glyphname = S;
lastChange = "2012-07-29 01:59:48 +0000";
layers = (
{
anchors = (
{
name = bottom;
position = "{300, 0}";
},
{
name = top;
position = "{300, 700}";
}
);
layerId = "C6C3B4F4-9047-4AEA-9672-C83927A9B560";
name = Regular;
paths = (
{
closed = 1;
nodes = (
"228 145 LINE",
"374 145 LINE",
"374 638 LINE",
"228 638 LINE"
);
},
{
closed = 1;
nodes = (
"412 49 OFFCURVE",
"508 127 OFFCURVE",
"519 235 CURVE",
"81 235 LINE",
"92 127 OFFCURVE",
"186 49 OFFCURVE",
"297 49 CURVE SMOOTH"
);
},
{
closed = 1;
nodes = (
"186 742 OFFCURVE",
"92 664 OFFCURVE",
"81 556 CURVE",
"519 556 LINE",
"508 664 OFFCURVE",
"412 742 OFFCURVE",
"297 742 CURVE SMOOTH"
);
}
);
width = 600;
}
);
leftKerningGroup = Standard;
rightKerningGroup = Standard;
unicode = 0053;
},
{
color = 7;
glyphname = T;
lastChange = "2012-07-29 01:59:48 +0000";
layers = (
{
anchors = (
{
name = bottom;
position = "{300, 0}";
},
{
name = center;
position = "{300, 350}";
},
{
name = top;
position = "{300, 700}";
}
);
layerId = "C6C3B4F4-9047-4AEA-9672-C83927A9B560";
name = Regular;
paths = (
{
closed = 1;
nodes = (
"132 345 LINE",
"458 345 LINE",
"458 438 LINE",
"132 438 LINE"
);
},
{
closed = 1;
nodes = (
"228 -131 LINE",
"374 -131 LINE",
"374 931 LINE",
"228 931 LINE"
);
}
);
width = 600;
}
);
leftKerningGroup = Standard;
rightKerningGroup = Standard;
unicode = 0054;
},
{
color = 7;
glyphname = U;
lastChange = "2012-07-29 01:59:48 +0000";
layers = (
{
anchors = (
{
name = ogonek;
position = "{540, 10}";
},
{
name = top;
position = "{300, 700}";
}
);
layerId = "C6C3B4F4-9047-4AEA-9672-C83927A9B560";
name = Regular;
paths = (
{
closed = 1;
nodes = (
"373 560 OFFCURVE",
"438 509 OFFCURVE",
"458 438 CURVE",
"538 438 LINE",
"516 552 OFFCURVE",
"416 638 OFFCURVE",
"292 638 CURVE SMOOTH",
"173 638 OFFCURVE",
"74 552 OFFCURVE",
"52 438 CURVE",
"132 438 LINE",
"152 509 OFFCURVE",
"216 560 OFFCURVE",
"292 560 CURVE SMOOTH"
);
},
{
closed = 1;
nodes = (
"216 223 OFFCURVE",
"152 274 OFFCURVE",
"132 345 CURVE",
"52 345 LINE",
"74 231 OFFCURVE",
"173 145 OFFCURVE",
"292 145 CURVE SMOOTH",
"415 145 OFFCURVE",
"516 231 OFFCURVE",
"538 345 CURVE",
"458 345 LINE",
"437 274 OFFCURVE",
"372 223 OFFCURVE",
"292 223 CURVE SMOOTH"
);
}
);
width = 600;
}
);
leftKerningGroup = Standard;
rightKerningGroup = Standard;
unicode = 0055;
},
{
color = 7;
glyphname = V;
lastChange = "2012-07-28 23:24:53 +0000";
layers = (
{
layerId = "C6C3B4F4-9047-4AEA-9672-C83927A9B560";
name = Regular;
paths = (
{
closed = 1;
nodes = (
"301 684 LINE",
"43 437 LINE",
"559 437 LINE"
);
},
{
closed = 1;
nodes = (
"301 92 LINE",
"559 338 LINE",
"43 338 LINE"
);
}
);
width = 600;
}
);
leftKerningGroup = Standard;
rightKerningGroup = Standard;
unicode = 0056;
},
{
color = 7;
glyphname = W;
lastChange = "2012-07-29 01:59:48 +0000";
layers = (
{
anchors = (
{
name = top;
position = "{300, 700}";
}
);
layerId = "C6C3B4F4-9047-4AEA-9672-C83927A9B560";
name = Regular;
paths = (
{
closed = 1;
nodes = (
"14 391 LINE",
"302 103 LINE",
"590 391 LINE",
"302 679 LINE"
);
},
{
closed = 1;
nodes = (
"129 391 LINE",
"302 564 LINE",
"475 391 LINE",
"302 218 LINE"
);
},
{
closed = 1;
nodes = (
"343 178 LINE",
"344 598 LINE",
"268 598 LINE",
"267 178 LINE"
);
}
);
width = 600;
}
);
leftKerningGroup = Standard;
rightKerningGroup = Standard;
unicode = 0057;
},
{
color = 7;
glyphname = X;
lastChange = "2012-07-28 23:24:53 +0000";
layers = (
{
guideLines = (
{
angle = 122.864;
position = "{249, 500}";
},
{
angle = 55.4009;
position = "{468, 405}";
}
);
layerId = "C6C3B4F4-9047-4AEA-9672-C83927A9B560";
name = Regular;
paths = (
{
closed = 1;
nodes = (
"385 390 LINE",
"536 239 LINE",
"447 150 LINE",
"296 301 LINE",
"145 150 LINE",
"56 239 LINE",
"207 390 LINE",
"56 541 LINE",
"145 630 LINE",
"296 479 LINE",
"447 630 LINE",
"536 541 LINE"
);
}
);
width = 600;
}
);
leftKerningGroup = Standard;
rightKerningGroup = Standard;
unicode = 0058;
},
{
color = 7;
glyphname = Y;
lastChange = "2012-07-29 01:59:48 +0000";
layers = (
{
anchors = (
{
name = top;
position = "{300, 700}";
}
);
layerId = "C6C3B4F4-9047-4AEA-9672-C83927A9B560";
name = Regular;
paths = (
{
closed = 1;
nodes = (
"228 145 LINE",
"374 145 LINE",
"374 638 LINE",
"228 638 LINE"
);
},
{
closed = 1;
nodes = (
"43 704 LINE",
"301 457 LINE",
"559 704 LINE"
);
},
{
closed = 1;
nodes = (
"559 -1 LINE",
"301 245 LINE",
"43 -1 LINE"
);
}
);
width = 600;
}
);
leftKerningGroup = Standard;
rightKerningGroup = Standard;
unicode = 0059;
},
{
color = 7;
glyphname = Z;
lastChange = "2012-09-05 22:41:05 +0000";
layers = (
{
anchors = (
{
name = top;
position = "{300, 700}";
}
);
guideLines = (
{
angle = 90;
position = "{312, 739}";
}
);
layerId = "C6C3B4F4-9047-4AEA-9672-C83927A9B560";
name = Regular;
paths = (
{
closed = 1;
nodes = (
"526 158 LINE",
"526 278 LINE",
"77 278 LINE",
"77 158 LINE"
);
},
{
closed = 1;
nodes = (
"526 506 LINE",
"526 626 LINE",
"77 626 LINE",
"77 506 LINE"
);
},
{
closed = 1;
nodes = (
"389 331 LINE",
"389 451 LINE",
"212 451 LINE",
"212 331 LINE"
);
}
);
width = 600;
}
);
leftKerningGroup = Standard;
rightKerningGroup = Standard;
unicode = 005A;
},
{
color = 0;
glyphname = zero;
lastChange = "2012-09-05 22:44:00 +0000";
layers = (
{
layerId = "C6C3B4F4-9047-4AEA-9672-C83927A9B560";
name = Regular;
paths = (
{
closed = 1;
nodes = (
"109 -3 OFFCURVE",
"24 139 OFFCURVE",
"24 400 CURVE SMOOTH",
"24 668 OFFCURVE",
"107 802 OFFCURVE",
"273 802 CURVE SMOOTH",
"439 802 OFFCURVE",
"524 660 OFFCURVE",
"524 400 CURVE SMOOTH",
"524 132 OFFCURVE",
"440 -3 OFFCURVE",
"273 -3 CURVE SMOOTH"
);
},
{
closed = 1;
nodes = (
"325 80 OFFCURVE",
"364 105 OFFCURVE",
"389 155 CURVE SMOOTH",
"413 205 OFFCURVE",
"425 287 OFFCURVE",
"425 400 CURVE SMOOTH",
"425 512 OFFCURVE",
"413 594 OFFCURVE",
"389 644 CURVE SMOOTH",
"364 694 OFFCURVE",
"325 718 OFFCURVE",
"273 718 CURVE SMOOTH",
"221 718 OFFCURVE",
"184 694 OFFCURVE",
"159 645 CURVE SMOOTH",
"136 595 OFFCURVE",
"123 513 OFFCURVE",
"123 400 CURVE SMOOTH",
"123 286 OFFCURVE",
"136 205 OFFCURVE",
"159 155 CURVE SMOOTH",
"184 105 OFFCURVE",
"221 80 OFFCURVE",
"273 80 CURVE SMOOTH"
);
}
);
width = 600;
}
);
unicode = 0030;
},
{
color = 0;
glyphname = one;
lastChange = "2012-09-05 22:44:13 +0000";
layers = (
{
layerId = "C6C3B4F4-9047-4AEA-9672-C83927A9B560";
name = Regular;
paths = (
{
closed = 1;
nodes = (
"372 -3 LINE",
"278 -3 LINE",
"278 485 LINE SMOOTH",
"278 529 OFFCURVE",
"280 593 OFFCURVE",
"282 678 CURVE",
"268 663 OFFCURVE",
"247 643 OFFCURVE",
"217 618 CURVE SMOOTH",
"139 553 LINE",
"87 619 LINE",
"292 779 LINE",
"372 779 LINE"
);
}
);
width = 600;
}
);
unicode = 0031;
},
{
color = 0;
glyphname = two;
lastChange = "2012-09-05 22:44:34 +0000";
layers = (
{
layerId = "C6C3B4F4-9047-4AEA-9672-C83927A9B560";
name = Regular;
paths = (
{
closed = 1;
nodes = (
"533 -1 LINE",
"47 -1 LINE",
"47 82 LINE",
"233 286 LINE SMOOTH",
"372 438 OFFCURVE",
"404 490 OFFCURVE",
"404 580 CURVE SMOOTH",
"404 660 OFFCURVE",
"356 710 OFFCURVE",
"279 710 CURVE SMOOTH",
"222 710 OFFCURVE",
"165 685 OFFCURVE",
"109 636 CURVE",
"54 701 LINE",
"122 761 OFFCURVE",
"198 792 OFFCURVE",
"280 792 CURVE SMOOTH",
"418 792 OFFCURVE",
"503 711 OFFCURVE",
"503 583 CURVE SMOOTH",
"503 541 OFFCURVE",
"492 497 OFFCURVE",
"472 452 CURVE SMOOTH",
"451 408 OFFCURVE",
"399 341 OFFCURVE",
"316 252 CURVE SMOOTH",
"166 92 LINE",
"166 88 LINE",
"533 88 LINE"
);
}
);
width = 600;
}
);
unicode = 0032;
},
{
color = 0;
glyphname = three;
lastChange = "2012-09-05 22:44:48 +0000";
layers = (
{
layerId = "C6C3B4F4-9047-4AEA-9672-C83927A9B560";
name = Regular;
paths = (
{
closed = 1;
nodes = (
"343 418 LINE",
"472 401 OFFCURVE",
"537 339 OFFCURVE",
"537 232 CURVE SMOOTH",
"537 87 OFFCURVE",
"436 -2 OFFCURVE",
"249 -2 CURVE SMOOTH",
"163 -2 OFFCURVE",
"94 13 OFFCURVE",
"42 41 CURVE",
"42 132 LINE",
"108 97 OFFCURVE",
"176 80 OFFCURVE",
"247 80 CURVE SMOOTH",
"373 80 OFFCURVE",
"437 132 OFFCURVE",
"437 235 CURVE SMOOTH",
"437 327 OFFCURVE",
"368 373 OFFCURVE",
"233 373 CURVE SMOOTH",
"161 373 LINE",
"161 454 LINE",
"233 454 LINE SMOOTH",
"347 454 OFFCURVE",
"412 513 OFFCURVE",
"412 602 CURVE SMOOTH",
"412 675 OFFCURVE",
"360 720 OFFCURVE",
"278 720 CURVE SMOOTH",
"215 720 OFFCURVE",
"154 698 OFFCURVE",
"95 656 CURVE",
"46 722 LINE",
"112 776 OFFCURVE",
"190 803 OFFCURVE",
"278 803 CURVE SMOOTH",
"426 803 OFFCURVE",
"512 726 OFFCURVE",
"512 608 CURVE SMOOTH",
"512 510 OFFCURVE",
"452 440 OFFCURVE",
"343 421 CURVE"
);
}
);
width = 600;
}
);
unicode = 0033;
},
{
color = 0;
glyphname = four;
lastChange = "2012-09-05 22:45:02 +0000";
layers = (
{
layerId = "C6C3B4F4-9047-4AEA-9672-C83927A9B560";
name = Regular;
paths = (
{
closed = 1;
nodes = (
"584 175 LINE",
"469 175 LINE",
"469 -1 LINE",
"376 -1 LINE",
"376 175 LINE",
"14 175 LINE",
"14 259 LINE",
"369 785 LINE",
"469 785 LINE",
"469 263 LINE",
"584 263 LINE"
);
},
{
closed = 1;
nodes = (
"376 263 LINE",
"376 454 LINE SMOOTH",
"376 516 OFFCURVE",
"378 593 OFFCURVE",
"383 685 CURVE",
"378 685 LINE",
"365 648 OFFCURVE",
"349 616 OFFCURVE",
"329 588 CURVE SMOOTH",
"110 263 LINE"
);
}
);
width = 600;
}
);
unicode = 0034;
},
{
color = 0;
glyphname = five;
lastChange = "2012-09-05 22:45:17 +0000";
layers = (
{
layerId = "C6C3B4F4-9047-4AEA-9672-C83927A9B560";
name = Regular;
paths = (
{
closed = 1;
nodes = (
"45 133 LINE",
"96 99 OFFCURVE",
"160 81 OFFCURVE",
"238 81 CURVE SMOOTH",
"357 81 OFFCURVE",
"417 138 OFFCURVE",
"417 250 CURVE SMOOTH",
"417 354 OFFCURVE",
"356 407 OFFCURVE",
"233 407 CURVE SMOOTH",
"201 407 OFFCURVE",
"160 402 OFFCURVE",
"110 393 CURVE",
"61 423 LINE",
"90 791 LINE",
"460 791 LINE",
"460 702 LINE",
"175 702 LINE",
"154 479 LINE",
"192 485 OFFCURVE",
"230 490 OFFCURVE",
"266 490 CURVE SMOOTH",
"416 490 OFFCURVE",
"517 402 OFFCURVE",
"517 260 CURVE SMOOTH",
"517 93 OFFCURVE",
"414 -1 OFFCURVE",
"235 -1 CURVE SMOOTH",
"156 -1 OFFCURVE",
"92 12 OFFCURVE",
"45 41 CURVE"
);
}
);
width = 600;
}
);
unicode = 0035;
},
{
color = 0;
glyphname = six;
lastChange = "2012-09-05 22:45:27 +0000";
layers = (
{
layerId = "C6C3B4F4-9047-4AEA-9672-C83927A9B560";
name = Regular;
paths = (
{
closed = 1;
nodes = (
"469 710 LINE",
"443 719 OFFCURVE",
"413 723 OFFCURVE",
"380 723 CURVE SMOOTH",
"220 723 OFFCURVE",
"141 627 OFFCURVE",
"134 408 CURVE",
"140 408 LINE",
"174 469 OFFCURVE",
"230 499 OFFCURVE",
"305 499 CURVE SMOOTH",
"444 499 OFFCURVE",
"527 409 OFFCURVE",
"527 262 CURVE SMOOTH",
"527 99 OFFCURVE",
"435 -1 OFFCURVE",
"290 -1 CURVE SMOOTH",
"134 -1 OFFCURVE",
"35 125 OFFCURVE",
"35 345 CURVE SMOOTH",
"35 650 OFFCURVE",
"149 804 OFFCURVE",
"377 804 CURVE SMOOTH",
"413 804 OFFCURVE",
"444 800 OFFCURVE",
"469 793 CURVE"
);
},
{
closed = 1;
nodes = (
"433 366 OFFCURVE",
"382 423 OFFCURVE",
"292 423 CURVE SMOOTH",
"201 423 OFFCURVE",
"132 356 OFFCURVE",
"132 281 CURVE SMOOTH",
"132 172 OFFCURVE",
"195 81 OFFCURVE",
"289 81 CURVE SMOOTH",
"379 81 OFFCURVE",
"433 147 OFFCURVE",
"433 262 CURVE SMOOTH"
);
}
);
width = 600;
}
);
unicode = 0036;
},
{
color = 0;
glyphname = seven;
lastChange = "2012-09-05 22:45:41 +0000";
layers = (
{
layerId = "C6C3B4F4-9047-4AEA-9672-C83927A9B560";
name = Regular;
paths = (
{
closed = 1;
nodes = (
"134 -1 LINE",
"435 692 LINE",
"32 692 LINE",
"32 781 LINE",
"534 781 LINE",
"534 704 LINE",
"237 -1 LINE"
);
}
);
width = 600;
}
);
unicode = 0037;
},
{
color = 0;
glyphname = eight;
lastChange = "2012-09-05 22:45:55 +0000";
layers = (
{
layerId = "C6C3B4F4-9047-4AEA-9672-C83927A9B560";
name = Regular;
paths = (
{
closed = 1;
nodes = (
"489 367 OFFCURVE",
"544 297 OFFCURVE",
"544 214 CURVE SMOOTH",
"544 85 OFFCURVE",
"447 -1 OFFCURVE",
"299 -1 CURVE SMOOTH",
"145 -1 OFFCURVE",
"54 77 OFFCURVE",
"54 209 CURVE SMOOTH",
"54 301 OFFCURVE",
"104 371 OFFCURVE",
"205 419 CURVE",
"120 471 OFFCURVE",
"79 537 OFFCURVE",
"79 617 CURVE SMOOTH",
"79 732 OFFCURVE",
"172 804 OFFCURVE",
"299 804 CURVE SMOOTH",
"429 804 OFFCURVE",
"519 731 OFFCURVE",
"519 616 CURVE SMOOTH",
"519 534 OFFCURVE",
"472 470 OFFCURVE",
"379 424 CURVE"
);
},
{
closed = 1;
nodes = (
"383 500 OFFCURVE",
"424 549 OFFCURVE",
"424 612 CURVE SMOOTH",
"424 684 OFFCURVE",
"377 723 OFFCURVE",
"298 723 CURVE SMOOTH",
"222 723 OFFCURVE",
"174 684 OFFCURVE",
"174 612 CURVE SMOOTH",
"174 547 OFFCURVE",
"203 508 OFFCURVE",
"299 463 CURVE"
);
},
{
closed = 1;
nodes = (
"285 382 LINE",
"195 338 OFFCURVE",
"149 281 OFFCURVE",
"149 208 CURVE SMOOTH",
"149 123 OFFCURVE",
"199 80 OFFCURVE",
"297 80 CURVE SMOOTH",
"393 80 OFFCURVE",
"449 129 OFFCURVE",
"449 213 CURVE SMOOTH",
"449 277 OFFCURVE",
"409 322 OFFCURVE",
"301 375 CURVE SMOOTH"
);
}
);
width = 600;
}
);
unicode = 0038;
},
{
color = 0;
glyphname = nine;
lastChange = "2012-09-05 22:46:07 +0000";
layers = (
{
layerId = "C6C3B4F4-9047-4AEA-9672-C83927A9B560";
name = Regular;
paths = (
{
closed = 1;
nodes = (
"98 93 LINE",
"123 84 OFFCURVE",
"152 79 OFFCURVE",
"187 79 CURVE SMOOTH",
"347 79 OFFCURVE",
"425 176 OFFCURVE",
"433 394 CURVE",
"426 394 LINE",
"392 334 OFFCURVE",
"337 303 OFFCURVE",
"262 303 CURVE SMOOTH",
"123 303 OFFCURVE",
"40 392 OFFCURVE",
"40 540 CURVE SMOOTH",
"40 703 OFFCURVE",
"132 804 OFFCURVE",
"277 804 CURVE SMOOTH",
"434 804 OFFCURVE",
"532 675 OFFCURVE",
"532 458 CURVE SMOOTH",
"532 153 OFFCURVE",
"418 -1 OFFCURVE",
"191 -1 CURVE SMOOTH",
"153 -1 OFFCURVE",
"123 3 OFFCURVE",
"98 9 CURVE"
);
},
{
closed = 1;
nodes = (
"134 437 OFFCURVE",
"185 379 OFFCURVE",
"275 379 CURVE SMOOTH",
"365 379 OFFCURVE",
"435 448 OFFCURVE",
"435 522 CURVE SMOOTH",
"435 629 OFFCURVE",
"373 721 OFFCURVE",
"278 721 CURVE SMOOTH",
"186 721 OFFCURVE",
"134 657 OFFCURVE",
"134 540 CURVE SMOOTH"
);
}
);
width = 600;
}
);
unicode = 0039;
},
{
color = 1;
glyphname = fraction;
lastChange = "2012-07-29 00:38:07 +0000";
layers = (
{
layerId = "C6C3B4F4-9047-4AEA-9672-C83927A9B560";
name = Regular;
paths = (
{
closed = 1;
nodes = (
"585 871 LINE",
"157 11 LINE",
"64 11 LINE",
"492 871 LINE"
);
}
);
width = 600;
}
);
unicode = 2044;
},
{
color = 1;
glyphname = onehalf;
lastChange = "2012-07-29 00:38:07 +0000";
layers = (
{
layerId = "C6C3B4F4-9047-4AEA-9672-C83927A9B560";
name = Regular;
paths = (
{
closed = 1;
nodes = (
"94 870 LINE",
"174 870 LINE",
"174 406 LINE",
"88 406 LINE",
"88 680 LINE SMOOTH",
"88 707 OFFCURVE",
"90 746 OFFCURVE",
"93 797 CURVE",
"77 780 OFFCURVE",
"63 767 OFFCURVE",
"50 759 CURVE",
"9 729 LINE",
"-34 781 LINE"
);
},
{
closed = 1;
nodes = (
"547 871 LINE",
"119 11 LINE",
"26 11 LINE",
"454 871 LINE"
);
},
{
closed = 1;
nodes = (
"684 12 LINE",
"372 12 LINE",
"372 72 LINE",
"482 189 LINE SMOOTH",
"526 235 OFFCURVE",
"553 268 OFFCURVE",
"566 288 CURVE SMOOTH",
"577 307 OFFCURVE",
"583 329 OFFCURVE",
"583 351 CURVE SMOOTH",
"583 396 OFFCURVE",
"561 419 OFFCURVE",
"518 419 CURVE SMOOTH",
"486 419 OFFCURVE",
"454 404 OFFCURVE",
"421 374 CURVE",
"376 425 LINE",
"421 465 OFFCURVE",
"470 485 OFFCURVE",
"521 485 CURVE SMOOTH",
"614 485 OFFCURVE",
"667 435 OFFCURVE",
"667 353 CURVE SMOOTH",
"667 327 OFFCURVE",
"660 301 OFFCURVE",
"647 275 CURVE SMOOTH",
"633 248 OFFCURVE",
"601 209 OFFCURVE",
"550 159 CURVE SMOOTH",
"471 79 LINE",
"684 79 LINE"
);
}
);
width = 600;
}
);
unicode = 00BD;
},
{
color = 1;
glyphname = onequarter;
lastChange = "2012-07-29 00:38:07 +0000";
layers = (
{
layerId = "C6C3B4F4-9047-4AEA-9672-C83927A9B560";
name = Regular;
paths = (
{
closed = 1;
nodes = (
"106 870 LINE",
"185 870 LINE",
"185 406 LINE",
"100 406 LINE",
"100 680 LINE SMOOTH",
"100 707 OFFCURVE",
"101 746 OFFCURVE",
"105 797 CURVE",
"89 780 OFFCURVE",
"74 767 OFFCURVE",
"61 759 CURVE",
"20 729 LINE",
"-23 781 LINE"
);
},
{
closed = 1;
nodes = (
"586 871 LINE",
"157 11 LINE",
"64 11 LINE",
"493 871 LINE"
);
},
{
closed = 1;
nodes = (
"675 114 LINE",
"625 114 LINE",
"625 12 LINE",
"541 12 LINE",
"541 114 LINE",
"321 114 LINE",
"321 172 LINE",
"542 479 LINE",
"625 479 LINE",
"625 180 LINE",
"675 180 LINE"
);
},
{
closed = 1;
nodes = (
"541 180 LINE",
"541 284 LINE SMOOTH",
"541 316 OFFCURVE",
"542 350 OFFCURVE",
"545 385 CURVE",
"529 356 OFFCURVE",
"514 331 OFFCURVE",
"498 308 CURVE SMOOTH",
"406 180 LINE"
);
}
);
width = 600;
}
);
unicode = 00BC;
},
{
color = 1;
glyphname = threequarters;
lastChange = "2012-07-29 00:38:07 +0000";
layers = (
{
layerId = "C6C3B4F4-9047-4AEA-9672-C83927A9B560";
name = Regular;
paths = (
{
closed = 1;
nodes = (
"242 637 OFFCURVE",
"277 601 OFFCURVE",
"277 543 CURVE SMOOTH",
"277 452 OFFCURVE",
"217 399 OFFCURVE",
"107 399 CURVE SMOOTH",
"56 399 OFFCURVE",
"14 409 OFFCURVE",
"-19 429 CURVE",
"-19 502 LINE",
"24 476 OFFCURVE",
"64 464 OFFCURVE",
"100 464 CURVE SMOOTH",
"158 464 OFFCURVE",
"188 491 OFFCURVE",
"188 544 CURVE SMOOTH",
"188 593 OFFCURVE",
"159 618 OFFCURVE",
"101 618 CURVE SMOOTH",
"59 618 LINE",
"59 679 LINE",
"100 679 LINE SMOOTH",
"148 679 OFFCURVE",
"172 704 OFFCURVE",
"172 754 CURVE SMOOTH",
"172 797 OFFCURVE",
"154 819 OFFCURVE",
"115 819 CURVE SMOOTH",
"88 819 OFFCURVE",
"56 805 OFFCURVE",
"21 778 CURVE",
"-18 828 LINE",
"25 865 OFFCURVE",
"72 883 OFFCURVE",
"122 883 CURVE SMOOTH",
"207 883 OFFCURVE",
"261 837 OFFCURVE",
"261 764 CURVE SMOOTH",
"261 709 OFFCURVE",
"232 672 OFFCURVE",
"174 652 CURVE"
);
},
{
closed = 1;
nodes = (
"621 874 LINE",
"192 14 LINE",
"100 14 LINE",
"528 874 LINE"
);
},
{
closed = 1;
nodes = (
"691 117 LINE",
"642 117 LINE",
"642 15 LINE",
"558 15 LINE",
"558 117 LINE",
"337 117 LINE",
"337 175 LINE",
"559 482 LINE",
"642 482 LINE",
"642 184 LINE",
"691 184 LINE"
);
},
{
closed = 1;
nodes = (
"558 184 LINE",
"558 287 LINE SMOOTH",
"558 319 OFFCURVE",
"559 353 OFFCURVE",
"561 388 CURVE",
"545 359 OFFCURVE",
"530 334 OFFCURVE",
"514 311 CURVE SMOOTH",
"422 184 LINE"
);
}
);
width = 600;
}
);
unicode = 00BE;
},
{
color = 1;
glyphname = oneeighth;
lastChange = "2012-07-29 00:38:07 +0000";
layers = (
{
layerId = "C6C3B4F4-9047-4AEA-9672-C83927A9B560";
name = Regular;
paths = (
{
closed = 1;
nodes = (
"102 868 LINE",
"182 868 LINE",
"182 404 LINE",
"96 404 LINE",
"96 678 LINE SMOOTH",
"96 705 OFFCURVE",
"98 744 OFFCURVE",
"101 795 CURVE",
"85 778 OFFCURVE",
"71 765 OFFCURVE",
"58 757 CURVE",
"17 727 LINE",
"-26 779 LINE"
);
},
{
closed = 1;
nodes = (
"552 869 LINE",
"123 9 LINE",
"30 9 LINE",
"459 869 LINE"
);
},
{
closed = 1;
nodes = (
"640 225 OFFCURVE",
"672 185 OFFCURVE",
"672 137 CURVE SMOOTH",
"672 57 OFFCURVE",
"607 3 OFFCURVE",
"510 3 CURVE SMOOTH",
"404 3 OFFCURVE",
"344 52 OFFCURVE",
"344 134 CURVE SMOOTH",
"344 185 OFFCURVE",
"371 225 OFFCURVE",
"425 254 CURVE",
"381 285 OFFCURVE",
"358 322 OFFCURVE",
"358 367 CURVE SMOOTH",
"358 438 OFFCURVE",
"421 485 OFFCURVE",
"509 485 CURVE SMOOTH",
"596 485 OFFCURVE",
"657 440 OFFCURVE",
"657 367 CURVE SMOOTH",
"657 322 OFFCURVE",
"629 285 OFFCURVE",
"575 259 CURVE"
);
},
{
closed = 1;
nodes = (
"551 307 OFFCURVE",
"571 333 OFFCURVE",
"571 366 CURVE SMOOTH",
"571 404 OFFCURVE",
"550 422 OFFCURVE",
"508 422 CURVE SMOOTH",
"466 422 OFFCURVE",
"445 404 OFFCURVE",
"445 366 CURVE SMOOTH",
"445 334 OFFCURVE",
"466 308 OFFCURVE",
"509 288 CURVE"
);
},
{
closed = 1;
nodes = (
"499 224 LINE",
"452 199 OFFCURVE",
"429 169 OFFCURVE",
"429 134 CURVE SMOOTH",
"429 88 OFFCURVE",
"455 65 OFFCURVE",
"507 65 CURVE SMOOTH",
"559 65 OFFCURVE",
"586 88 OFFCURVE",
"586 134 CURVE SMOOTH",
"586 168 OFFCURVE",
"559 197 OFFCURVE",
"507 220 CURVE SMOOTH"
);
}
);
width = 600;
}
);
unicode = 215B;
},
{
color = 1;
glyphname = threeeighths;
lastChange = "2012-07-29 00:38:07 +0000";
layers = (
{
layerId = "C6C3B4F4-9047-4AEA-9672-C83927A9B560";
name = Regular;
paths = (
{
closed = 1;
nodes = (
"234 635 OFFCURVE",
"269 599 OFFCURVE",
"269 541 CURVE SMOOTH",
"269 450 OFFCURVE",
"209 397 OFFCURVE",
"99 397 CURVE SMOOTH",
"47 397 OFFCURVE",
"5 407 OFFCURVE",
"-28 427 CURVE",
"-28 500 LINE",
"15 474 OFFCURVE",
"55 461 OFFCURVE",
"92 461 CURVE SMOOTH",
"150 461 OFFCURVE",
"179 489 OFFCURVE",
"179 542 CURVE SMOOTH",
"179 591 OFFCURVE",
"150 616 OFFCURVE",
"93 616 CURVE SMOOTH",
"50 616 LINE",
"50 677 LINE",
"92 677 LINE SMOOTH",
"140 677 OFFCURVE",
"164 701 OFFCURVE",
"164 751 CURVE SMOOTH",
"164 795 OFFCURVE",
"145 817 OFFCURVE",
"107 817 CURVE SMOOTH",
"79 817 OFFCURVE",
"47 803 OFFCURVE",
"12 776 CURVE",
"-27 826 LINE",
"17 863 OFFCURVE",
"63 881 OFFCURVE",
"113 881 CURVE SMOOTH",
"199 881 OFFCURVE",
"253 835 OFFCURVE",
"253 761 CURVE SMOOTH",
"253 707 OFFCURVE",
"223 670 OFFCURVE",
"165 650 CURVE"
);
},
{
closed = 1;
nodes = (
"577 872 LINE",
"149 12 LINE",
"56 12 LINE",
"485 872 LINE"
);
},
{
closed = 1;
nodes = (
"655 229 OFFCURVE",
"687 188 OFFCURVE",
"687 140 CURVE SMOOTH",
"687 60 OFFCURVE",
"622 6 OFFCURVE",
"525 6 CURVE SMOOTH",
"418 6 OFFCURVE",
"358 55 OFFCURVE",
"358 137 CURVE SMOOTH",
"358 188 OFFCURVE",
"385 228 OFFCURVE",
"440 257 CURVE",
"395 288 OFFCURVE",
"373 326 OFFCURVE",
"373 370 CURVE SMOOTH",
"373 441 OFFCURVE",
"436 489 OFFCURVE",
"523 489 CURVE SMOOTH",
"610 489 OFFCURVE",
"672 443 OFFCURVE",
"672 370 CURVE SMOOTH",
"672 325 OFFCURVE",
"644 289 OFFCURVE",
"589 262 CURVE"
);
},
{
closed = 1;
nodes = (
"565 310 OFFCURVE",
"586 336 OFFCURVE",
"586 369 CURVE SMOOTH",
"586 407 OFFCURVE",
"565 426 OFFCURVE",
"522 426 CURVE SMOOTH",
"480 426 OFFCURVE",
"459 407 OFFCURVE",
"459 369 CURVE SMOOTH",
"459 337 OFFCURVE",
"480 311 OFFCURVE",
"523 291 CURVE"
);
},
{
closed = 1;
nodes = (
"513 227 LINE",
"467 202 OFFCURVE",
"444 172 OFFCURVE",
"444 137 CURVE SMOOTH",
"444 91 OFFCURVE",
"470 68 OFFCURVE",
"521 68 CURVE SMOOTH",
"574 68 OFFCURVE",
"600 91 OFFCURVE",
"600 137 CURVE SMOOTH",
"600 171 OFFCURVE",
"574 200 OFFCURVE",
"521 223 CURVE SMOOTH"
);
}
);
width = 600;
}
);
unicode = 215C;
},
{
color = 1;
glyphname = fiveeighths;
lastChange = "2012-07-29 00:38:07 +0000";
layers = (
{
layerId = "C6C3B4F4-9047-4AEA-9672-C83927A9B560";
name = Regular;
paths = (
{
closed = 1;
nodes = (
"-18 500 LINE",
"22 473 OFFCURVE",
"63 460 OFFCURVE",
"104 460 CURVE SMOOTH",
"168 460 OFFCURVE",
"200 488 OFFCURVE",
"200 546 CURVE SMOOTH",
"200 603 OFFCURVE",
"167 632 OFFCURVE",
"102 632 CURVE SMOOTH",
"81 632 OFFCURVE",
"57 628 OFFCURVE",
"28 622 CURVE",
"-8 645 LINE",
"10 869 LINE",
"244 869 LINE",
"244 804 LINE",
"74 804 LINE",
"64 691 LINE",
"78 693 OFFCURVE",
"97 694 OFFCURVE",
"121 694 CURVE SMOOTH",
"213 694 OFFCURVE",
"277 639 OFFCURVE",
"277 554 CURVE SMOOTH",
"277 454 OFFCURVE",
"217 395 OFFCURVE",
"103 395 CURVE SMOOTH",
"54 395 OFFCURVE",
"14 405 OFFCURVE",
"-18 424 CURVE"
);
},
{
closed = 1;
nodes = (
"580 869 LINE",
"151 9 LINE",
"58 9 LINE",
"487 869 LINE"
);
},
{
closed = 1;
nodes = (
"657 225 OFFCURVE",
"690 185 OFFCURVE",
"690 137 CURVE SMOOTH",
"690 57 OFFCURVE",
"624 3 OFFCURVE",
"527 3 CURVE SMOOTH",
"421 3 OFFCURVE",
"361 52 OFFCURVE",
"361 134 CURVE SMOOTH",
"361 185 OFFCURVE",
"388 225 OFFCURVE",
"442 254 CURVE",
"398 285 OFFCURVE",
"375 322 OFFCURVE",
"375 367 CURVE SMOOTH",
"375 438 OFFCURVE",
"438 485 OFFCURVE",
"526 485 CURVE SMOOTH",
"613 485 OFFCURVE",
"674 440 OFFCURVE",
"674 367 CURVE SMOOTH",
"674 322 OFFCURVE",
"647 285 OFFCURVE",
"592 259 CURVE"
);
},
{
closed = 1;
nodes = (
"568 307 OFFCURVE",
"588 333 OFFCURVE",
"588 366 CURVE SMOOTH",
"588 404 OFFCURVE",
"567 422 OFFCURVE",
"525 422 CURVE SMOOTH",
"483 422 OFFCURVE",
"462 404 OFFCURVE",
"462 366 CURVE SMOOTH",
"462 334 OFFCURVE",
"483 308 OFFCURVE",
"526 288 CURVE"
);
},
{
closed = 1;
nodes = (
"516 224 LINE",
"470 199 OFFCURVE",
"447 169 OFFCURVE",
"447 134 CURVE SMOOTH",
"447 88 OFFCURVE",
"472 65 OFFCURVE",
"524 65 CURVE SMOOTH",
"577 65 OFFCURVE",
"603 88 OFFCURVE",
"603 134 CURVE SMOOTH",
"603 168 OFFCURVE",
"577 197 OFFCURVE",
"524 220 CURVE SMOOTH"
);
}
);
width = 600;
}
);
unicode = 215D;
},
{
color = 1;
glyphname = seveneighths;
lastChange = "2012-07-29 00:38:07 +0000";
layers = (
{
layerId = "C6C3B4F4-9047-4AEA-9672-C83927A9B560";
name = Regular;
paths = (
{
closed = 1;
nodes = (
"35 404 LINE",
"217 798 LINE",
"-14 798 LINE",
"-14 869 LINE",
"308 869 LINE",
"308 810 LINE",
"126 404 LINE"
);
},
{
closed = 1;
nodes = (
"543 869 LINE",
"114 9 LINE",
"22 9 LINE",
"450 869 LINE"
);
},
{
closed = 1;
nodes = (
"658 225 OFFCURVE",
"690 185 OFFCURVE",
"690 137 CURVE SMOOTH",
"690 57 OFFCURVE",
"625 3 OFFCURVE",
"528 3 CURVE SMOOTH",
"422 3 OFFCURVE",
"362 52 OFFCURVE",
"362 134 CURVE SMOOTH",
"362 185 OFFCURVE",
"389 225 OFFCURVE",
"443 254 CURVE",
"399 285 OFFCURVE",
"376 322 OFFCURVE",
"376 367 CURVE SMOOTH",
"376 438 OFFCURVE",
"439 485 OFFCURVE",
"527 485 CURVE SMOOTH",
"614 485 OFFCURVE",
"675 440 OFFCURVE",
"675 367 CURVE SMOOTH",
"675 322 OFFCURVE",
"647 285 OFFCURVE",
"593 259 CURVE"
);
},
{
closed = 1;
nodes = (
"569 307 OFFCURVE",
"589 333 OFFCURVE",
"589 366 CURVE SMOOTH",
"589 404 OFFCURVE",
"568 422 OFFCURVE",
"526 422 CURVE SMOOTH",
"484 422 OFFCURVE",
"463 404 OFFCURVE",
"463 366 CURVE SMOOTH",
"463 334 OFFCURVE",
"484 308 OFFCURVE",
"527 288 CURVE"
);
},
{
closed = 1;
nodes = (
"517 224 LINE",
"470 199 OFFCURVE",
"447 169 OFFCURVE",
"447 134 CURVE SMOOTH",
"447 88 OFFCURVE",
"473 65 OFFCURVE",
"524 65 CURVE SMOOTH",
"577 65 OFFCURVE",
"604 88 OFFCURVE",
"604 134 CURVE SMOOTH",
"604 168 OFFCURVE",
"577 197 OFFCURVE",
"524 220 CURVE SMOOTH"
);
}
);
width = 600;
}
);
unicode = 215E;
},
{
color = 1;
glyphname = zerosuperior;
lastChange = "2012-07-29 00:38:07 +0000";
layers = (
{
layerId = "C6C3B4F4-9047-4AEA-9672-C83927A9B560";
name = Regular;
paths = (
{
closed = 1;
nodes = (
"213 466 OFFCURVE",
"148 560 OFFCURVE",
"148 735 CURVE SMOOTH",
"148 913 OFFCURVE",
"207 1002 OFFCURVE",
"324 1002 CURVE SMOOTH",
"441 1002 OFFCURVE",
"502 905 OFFCURVE",
"502 735 CURVE SMOOTH",
"502 556 OFFCURVE",
"443 466 OFFCURVE",
"324 466 CURVE SMOOTH"
);
},
{
closed = 1;
nodes = (
"385 543 OFFCURVE",
"416 608 OFFCURVE",
"416 735 CURVE SMOOTH",
"416 862 OFFCURVE",
"385 926 OFFCURVE",
"324 926 CURVE SMOOTH",
"264 926 OFFCURVE",
"235 862 OFFCURVE",
"235 735 CURVE SMOOTH",
"235 608 OFFCURVE",
"264 543 OFFCURVE",
"324 543 CURVE SMOOTH"
);
}
);
width = 600;
}
);
unicode = 2070;
},
{
color = 1;
glyphname = onesuperior;
lastChange = "2012-07-29 00:38:07 +0000";
layers = (
{
layerId = "C6C3B4F4-9047-4AEA-9672-C83927A9B560";
name = Regular;
paths = (
{
closed = 1;
nodes = (
"280 1008 LINE",
"359 1008 LINE",
"359 544 LINE",
"273 544 LINE",
"273 818 LINE SMOOTH",
"273 845 OFFCURVE",
"275 884 OFFCURVE",
"279 935 CURVE",
"263 918 OFFCURVE",
"248 905 OFFCURVE",
"235 897 CURVE",
"194 867 LINE",
"151 919 LINE"
);
}
);
width = 600;
}
);
unicode = 00B9;
},
{
color = 1;
glyphname = twosuperior;
lastChange = "2012-07-29 00:38:07 +0000";
layers = (
{
layerId = "C6C3B4F4-9047-4AEA-9672-C83927A9B560";
name = Regular;
paths = (
{
closed = 1;
nodes = (
"481 548 LINE",
"168 548 LINE",
"168 608 LINE",
"278 725 LINE SMOOTH",
"322 771 OFFCURVE",
"350 804 OFFCURVE",
"362 824 CURVE SMOOTH",
"374 844 OFFCURVE",
"380 865 OFFCURVE",
"380 887 CURVE SMOOTH",
"380 932 OFFCURVE",
"358 955 OFFCURVE",
"314 955 CURVE SMOOTH",
"282 955 OFFCURVE",
"250 940 OFFCURVE",
"218 910 CURVE",
"172 961 LINE",
"218 1001 OFFCURVE",
"267 1021 OFFCURVE",
"318 1021 CURVE SMOOTH",
"410 1021 OFFCURVE",
"464 971 OFFCURVE",
"464 890 CURVE SMOOTH",
"464 864 OFFCURVE",
"457 837 OFFCURVE",
"443 811 CURVE SMOOTH",
"430 784 OFFCURVE",
"397 745 OFFCURVE",
"347 695 CURVE SMOOTH",
"267 615 LINE",
"481 615 LINE"
);
}
);
width = 600;
}
);
unicode = 00B2;
},
{
color = 1;
glyphname = threesuperior;
lastChange = "2012-07-29 00:38:07 +0000";
layers = (
{
layerId = "C6C3B4F4-9047-4AEA-9672-C83927A9B560";
name = Regular;
paths = (
{
closed = 1;
nodes = (
"419 772 OFFCURVE",
"453 735 OFFCURVE",
"453 678 CURVE SMOOTH",
"453 587 OFFCURVE",
"393 534 OFFCURVE",
"283 534 CURVE SMOOTH",
"232 534 OFFCURVE",
"190 544 OFFCURVE",
"157 564 CURVE",
"157 637 LINE",
"200 611 OFFCURVE",
"240 598 OFFCURVE",
"276 598 CURVE SMOOTH",
"334 598 OFFCURVE",
"364 625 OFFCURVE",
"364 679 CURVE SMOOTH",
"364 728 OFFCURVE",
"335 752 OFFCURVE",
"277 752 CURVE SMOOTH",
"235 752 LINE",
"235 814 LINE",
"276 814 LINE SMOOTH",
"324 814 OFFCURVE",
"349 838 OFFCURVE",
"349 888 CURVE SMOOTH",
"349 932 OFFCURVE",
"330 954 OFFCURVE",
"291 954 CURVE SMOOTH",
"264 954 OFFCURVE",
"232 940 OFFCURVE",
"197 912 CURVE",
"158 963 LINE",
"201 1000 OFFCURVE",
"248 1018 OFFCURVE",
"298 1018 CURVE SMOOTH",
"383 1018 OFFCURVE",
"437 972 OFFCURVE",
"437 898 CURVE SMOOTH",
"437 844 OFFCURVE",
"408 807 OFFCURVE",
"350 787 CURVE"
);
}
);
width = 600;
}
);
unicode = 00B3;
},
{
color = 1;
glyphname = foursuperior;
lastChange = "2012-07-29 00:38:07 +0000";
layers = (
{
layerId = "C6C3B4F4-9047-4AEA-9672-C83927A9B560";
name = Regular;
paths = (
{
closed = 1;
nodes = (
"482 656 LINE",
"433 656 LINE",
"433 554 LINE",
"349 554 LINE",
"349 656 LINE",
"128 656 LINE",
"128 714 LINE",
"350 1021 LINE",
"433 1021 LINE",
"433 723 LINE",
"482 723 LINE"
);
},
{
closed = 1;
nodes = (
"349 723 LINE",
"349 826 LINE SMOOTH",
"349 858 OFFCURVE",
"350 892 OFFCURVE",
"352 927 CURVE",
"336 898 OFFCURVE",
"321 873 OFFCURVE",
"305 850 CURVE SMOOTH",
"213 723 LINE"
);
}
);
width = 600;
}
);
unicode = 2074;
},
{
color = 1;
glyphname = fivesuperior;
lastChange = "2012-07-29 00:38:07 +0000";
layers = (
{
layerId = "C6C3B4F4-9047-4AEA-9672-C83927A9B560";
name = Regular;
paths = (
{
closed = 1;
nodes = (
"150 637 LINE",
"190 610 OFFCURVE",
"231 597 OFFCURVE",
"272 597 CURVE SMOOTH",
"335 597 OFFCURVE",
"367 626 OFFCURVE",
"367 683 CURVE SMOOTH",
"367 740 OFFCURVE",
"335 769 OFFCURVE",
"269 769 CURVE SMOOTH",
"249 769 OFFCURVE",
"225 766 OFFCURVE",
"196 759 CURVE",
"159 782 LINE",
"178 1006 LINE",
"411 1006 LINE",
"411 942 LINE",
"242 942 LINE",
"232 828 LINE",
"245 830 OFFCURVE",
"264 832 OFFCURVE",
"288 832 CURVE SMOOTH",
"381 832 OFFCURVE",
"444 776 OFFCURVE",
"444 691 CURVE SMOOTH",
"444 592 OFFCURVE",
"384 533 OFFCURVE",
"271 533 CURVE SMOOTH",
"222 533 OFFCURVE",
"182 542 OFFCURVE",
"150 561 CURVE"
);
}
);
width = 600;
}
);
unicode = 2075;
},
{
color = 1;
glyphname = sixsuperior;
lastChange = "2012-07-29 00:38:07 +0000";
layers = (
{
layerId = "C6C3B4F4-9047-4AEA-9672-C83927A9B560";
name = Regular;
paths = (
{
closed = 1;
nodes = (
"459 949 LINE",
"330 906 OFFCURVE",
"256 842 OFFCURVE",
"235 757 CURVE",
"241 757 LINE",
"265 793 OFFCURVE",
"304 812 OFFCURVE",
"359 812 CURVE SMOOTH",
"447 812 OFFCURVE",
"502 747 OFFCURVE",
"502 646 CURVE SMOOTH",
"502 542 OFFCURVE",
"431 469 OFFCURVE",
"326 469 CURVE SMOOTH",
"220 469 OFFCURVE",
"148 549 OFFCURVE",
"148 672 CURVE SMOOTH",
"148 831 OFFCURVE",
"243 945 OFFCURVE",
"433 1013 CURVE"
);
},
{
closed = 1;
nodes = (
"419 713 OFFCURVE",
"390 746 OFFCURVE",
"333 746 CURVE SMOOTH",
"274 746 OFFCURVE",
"231 707 OFFCURVE",
"231 657 CURVE SMOOTH",
"231 590 OFFCURVE",
"271 540 OFFCURVE",
"330 540 CURVE SMOOTH",
"384 540 OFFCURVE",
"419 577 OFFCURVE",
"419 645 CURVE SMOOTH"
);
}
);
width = 600;
}
);
unicode = 2076;
},
{
color = 1;
glyphname = sevensuperior;
lastChange = "2012-07-29 00:38:07 +0000";
layers = (
{
layerId = "C6C3B4F4-9047-4AEA-9672-C83927A9B560";
name = Regular;
paths = (
{
closed = 1;
nodes = (
"240 545 LINE",
"422 938 LINE",
"191 938 LINE",
"191 1009 LINE",
"513 1009 LINE",
"513 951 LINE",
"331 545 LINE"
);
}
);
width = 600;
}
);
unicode = 2077;
},
{
color = 1;
glyphname = eightsuperior;
lastChange = "2012-07-29 00:38:07 +0000";
layers = (
{
layerId = "C6C3B4F4-9047-4AEA-9672-C83927A9B560";
name = Regular;
paths = (
{
closed = 1;
nodes = (
"428 756 OFFCURVE",
"460 716 OFFCURVE",
"460 668 CURVE SMOOTH",
"460 587 OFFCURVE",
"395 534 OFFCURVE",
"298 534 CURVE SMOOTH",
"191 534 OFFCURVE",
"131 583 OFFCURVE",
"131 664 CURVE SMOOTH",
"131 716 OFFCURVE",
"158 756 OFFCURVE",
"213 784 CURVE",
"168 816 OFFCURVE",
"146 853 OFFCURVE",
"146 898 CURVE SMOOTH",
"146 969 OFFCURVE",
"209 1016 OFFCURVE",
"296 1016 CURVE SMOOTH",
"383 1016 OFFCURVE",
"445 971 OFFCURVE",
"445 898 CURVE SMOOTH",
"445 853 OFFCURVE",
"417 816 OFFCURVE",
"362 790 CURVE"
);
},
{
closed = 1;
nodes = (
"338 838 OFFCURVE",
"359 864 OFFCURVE",
"359 897 CURVE SMOOTH",
"359 934 OFFCURVE",
"338 953 OFFCURVE",
"295 953 CURVE SMOOTH",
"253 953 OFFCURVE",
"232 934 OFFCURVE",
"232 897 CURVE SMOOTH",
"232 865 OFFCURVE",
"253 839 OFFCURVE",
"296 819 CURVE"
);
},
{
closed = 1;
nodes = (
"286 754 LINE",
"240 730 OFFCURVE",
"217 700 OFFCURVE",
"217 664 CURVE SMOOTH",
"217 619 OFFCURVE",
"243 596 OFFCURVE",
"294 596 CURVE SMOOTH",
"347 596 OFFCURVE",
"373 619 OFFCURVE",
"373 664 CURVE SMOOTH",
"373 699 OFFCURVE",
"347 728 OFFCURVE",
"294 751 CURVE SMOOTH"
);
}
);
width = 600;
}
);
unicode = 2078;
},
{
color = 1;
glyphname = ninesuperior;
lastChange = "2012-07-29 00:38:07 +0000";
layers = (
{
layerId = "C6C3B4F4-9047-4AEA-9672-C83927A9B560";
name = Regular;
paths = (
{
closed = 1;
nodes = (
"194 549 LINE",
"209 540 OFFCURVE",
"229 536 OFFCURVE",
"253 536 CURVE SMOOTH",
"360 536 OFFCURVE",
"416 597 OFFCURVE",
"421 721 CURVE",
"417 721 LINE",
"389 683 OFFCURVE",
"350 663 OFFCURVE",
"301 663 CURVE SMOOTH",
"205 663 OFFCURVE",
"148 726 OFFCURVE",
"148 825 CURVE SMOOTH",
"148 929 OFFCURVE",
"216 1003 OFFCURVE",
"319 1003 CURVE SMOOTH",
"430 1003 OFFCURVE",
"502 919 OFFCURVE",
"502 773 CURVE SMOOTH",
"502 569 OFFCURVE",
"421 467 OFFCURVE",
"259 467 CURVE SMOOTH",
"235 467 OFFCURVE",
"213 470 OFFCURVE",
"194 476 CURVE"
);
},
{
closed = 1;
nodes = (
"230 762 OFFCURVE",
"260 730 OFFCURVE",
"318 730 CURVE SMOOTH",
"375 730 OFFCURVE",
"418 770 OFFCURVE",
"418 814 CURVE SMOOTH",
"418 877 OFFCURVE",
"381 933 OFFCURVE",
"320 933 CURVE SMOOTH",
"267 933 OFFCURVE",
"230 895 OFFCURVE",
"230 826 CURVE SMOOTH"
);
}
);
width = 600;
}
);
unicode = 2079;
},
{
color = 1;
glyphname = ordfeminine;
lastChange = "2012-07-29 00:38:07 +0000";
layers = (
{
layerId = "C6C3B4F4-9047-4AEA-9672-C83927A9B560";
name = Regular;
paths = (
{
closed = 1;
nodes = (
"425 645 LINE",
"406 714 LINE",
"365 663 OFFCURVE",
"312 637 OFFCURVE",
"248 637 CURVE SMOOTH",
"161 637 OFFCURVE",
"117 677 OFFCURVE",
"117 758 CURVE SMOOTH",
"117 849 OFFCURVE",
"180 885 OFFCURVE",
"330 890 CURVE SMOOTH",
"403 893 LINE",
"403 899 LINE SMOOTH",
"403 951 OFFCURVE",
"373 977 OFFCURVE",
"314 977 CURVE SMOOTH",
"270 977 OFFCURVE",
"222 967 OFFCURVE",
"170 947 CURVE",
"146 1012 LINE",
"200 1035 OFFCURVE",
"257 1046 OFFCURVE",
"319 1046 CURVE SMOOTH",
"433 1046 OFFCURVE",
"490 999 OFFCURVE",
"490 906 CURVE SMOOTH",
"490 645 LINE"
);
},
{
closed = 1;
nodes = (
"344 832 LINE SMOOTH",
"255 831 OFFCURVE",
"207 815 OFFCURVE",
"207 757 CURVE SMOOTH",
"207 721 OFFCURVE",
"227 704 OFFCURVE",
"268 704 CURVE SMOOTH",
"350 704 OFFCURVE",
"403 751 OFFCURVE",
"403 822 CURVE SMOOTH",
"403 834 LINE"
);
}
);
width = 600;
}
);
unicode = 00AA;
},
{
color = 1;
glyphname = ordmasculine;
lastChange = "2012-07-29 00:38:07 +0000";
layers = (
{
layerId = "C6C3B4F4-9047-4AEA-9672-C83927A9B560";
name = Regular;
paths = (
{
closed = 1;
nodes = (
"211 637 OFFCURVE",
"129 715 OFFCURVE",
"129 842 CURVE SMOOTH",
"129 969 OFFCURVE",
"205 1046 OFFCURVE",
"326 1046 CURVE SMOOTH",
"440 1046 OFFCURVE",
"522 969 OFFCURVE",
"522 842 CURVE SMOOTH",
"522 713 OFFCURVE",
"443 637 OFFCURVE",
"324 637 CURVE SMOOTH"
);
},
{
closed = 1;
nodes = (
"396 707 OFFCURVE",
"432 752 OFFCURVE",
"432 842 CURVE SMOOTH",
"432 931 OFFCURVE",
"396 975 OFFCURVE",
"325 975 CURVE SMOOTH",
"254 975 OFFCURVE",
"218 931 OFFCURVE",
"218 842 CURVE SMOOTH",
"218 752 OFFCURVE",
"254 707 OFFCURVE",
"325 707 CURVE SMOOTH"
);
}
);
width = 600;
}
);
unicode = 00BA;
},
{
glyphname = asterisk;
lastChange = "2012-09-05 22:41:28 +0000";
layers = (
{
layerId = "C6C3B4F4-9047-4AEA-9672-C83927A9B560";
name = Regular;
paths = (
{
closed = 1;
nodes = (
"354 980 LINE",
"330 769 LINE",
"543 829 LINE",
"557 726 LINE",
"355 711 LINE",
"487 537 LINE",
"390 485 LINE",
"297 677 LINE",
"212 485 LINE",
"114 537 LINE",
"243 711 LINE",
"42 726 LINE",
"57 829 LINE",
"267 769 LINE",
"244 980 LINE"
);
}
);
width = 600;
}
);
unicode = 002A;
},
{
glyphname = backslash;
lastChange = "2012-07-28 23:40:59 +0000";
layers = (
{
layerId = "C6C3B4F4-9047-4AEA-9672-C83927A9B560";
name = Regular;
paths = (
{
closed = 1;
nodes = (
"192 871 LINE",
"561 11 LINE",
"457 11 LINE",
"88 871 LINE"
);
}
);
width = 600;
}
);
unicode = 005C;
},
{
glyphname = bullet;
lastChange = "2012-09-05 22:41:49 +0000";
layers = (
{
layerId = "C6C3B4F4-9047-4AEA-9672-C83927A9B560";
name = Regular;
paths = (
{
closed = 1;
nodes = (
"345 562 OFFCURVE",
"376 528 OFFCURVE",
"376 458 CURVE SMOOTH",
"376 389 OFFCURVE",
"340 354 OFFCURVE",
"282 354 CURVE SMOOTH",
"222 354 OFFCURVE",
"187 389 OFFCURVE",
"187 458 CURVE SMOOTH",
"187 528 OFFCURVE",
"219 562 OFFCURVE",
"282 562 CURVE SMOOTH"
);
}
);
width = 600;
}
);
unicode = 2022;
},
{
glyphname = colon;
lastChange = "2012-09-05 22:42:14 +0000";
layers = (
{
layerId = "C6C3B4F4-9047-4AEA-9672-C83927A9B560";
name = Regular;
paths = (
{
closed = 1;
nodes = (
"375 638 OFFCURVE",
"400 611 OFFCURVE",
"400 556 CURVE SMOOTH",
"400 502 OFFCURVE",
"375 475 OFFCURVE",
"325 475 CURVE SMOOTH",
"275 475 OFFCURVE",
"250 502 OFFCURVE",
"250 556 CURVE SMOOTH",
"250 611 OFFCURVE",
"275 638 OFFCURVE",
"325 638 CURVE SMOOTH"
);
},
{
closed = 1;
nodes = (
"375 123 OFFCURVE",
"400 96 OFFCURVE",
"400 41 CURVE SMOOTH",
"400 -14 OFFCURVE",
"375 -41 OFFCURVE",
"325 -41 CURVE SMOOTH",
"275 -41 OFFCURVE",
"250 -14 OFFCURVE",
"250 41 CURVE SMOOTH",
"250 96 OFFCURVE",
"275 123 OFFCURVE",
"325 123 CURVE SMOOTH"
);
}
);
width = 600;
}
);
unicode = 003A;
},
{
glyphname = comma;
lastChange = "2012-09-05 22:42:30 +0000";
layers = (
{
layerId = "C6C3B4F4-9047-4AEA-9672-C83927A9B560";
name = Regular;
paths = (
{
closed = 1;
nodes = (
"398 48 LINE",
"407 35 LINE",
"387 -45 OFFCURVE",
"352 -139 OFFCURVE",
"304 -247 CURVE",
"222 -247 LINE",
"249 -132 OFFCURVE",
"269 -34 OFFCURVE",
"282 48 CURVE"
);
}
);
width = 600;
}
);
unicode = 002C;
},
{
glyphname = ellipsis;
lastChange = "2012-09-05 22:42:45 +0000";
layers = (
{
layerId = "C6C3B4F4-9047-4AEA-9672-C83927A9B560";
name = Regular;
paths = (
{
closed = 1;
nodes = (
"134 128 OFFCURVE",
"153 106 OFFCURVE",
"153 61 CURVE SMOOTH",
"153 15 OFFCURVE",
"134 -8 OFFCURVE",
"92 -8 CURVE SMOOTH",
"51 -8 OFFCURVE",
"30 15 OFFCURVE",
"30 61 CURVE SMOOTH",
"30 106 OFFCURVE",
"51 128 OFFCURVE",
"92 128 CURVE SMOOTH"
);
},
{
closed = 1;
nodes = (
"332 128 OFFCURVE",
"353 106 OFFCURVE",
"353 61 CURVE SMOOTH",
"353 15 OFFCURVE",
"332 -8 OFFCURVE",
"290 -8 CURVE SMOOTH",
"249 -8 OFFCURVE",
"229 15 OFFCURVE",
"229 61 CURVE SMOOTH",
"229 106 OFFCURVE",
"249 128 OFFCURVE",
"290 128 CURVE SMOOTH"
);
},
{
closed = 1;
nodes = (
"531 128 OFFCURVE",
"552 106 OFFCURVE",
"552 61 CURVE SMOOTH",
"552 15 OFFCURVE",
"531 -8 OFFCURVE",
"489 -8 CURVE SMOOTH",
"448 -8 OFFCURVE",
"428 15 OFFCURVE",
"428 61 CURVE SMOOTH",
"428 106 OFFCURVE",
"448 128 OFFCURVE",
"489 128 CURVE SMOOTH"
);
}
);
width = 600;
}
);
unicode = 2026;
},
{
glyphname = exclam;
lastChange = "2012-07-28 23:40:59 +0000";
layers = (
{
layerId = "C6C3B4F4-9047-4AEA-9672-C83927A9B560";
name = Regular;
paths = (
{
closed = 1;
nodes = (
"361 249 LINE",
"290 249 LINE",
"260 865 LINE",
"391 865 LINE"
);
},
{
closed = 1;
nodes = (
"375 152 OFFCURVE",
"400 125 OFFCURVE",
"400 70 CURVE SMOOTH",
"400 16 OFFCURVE",
"375 -12 OFFCURVE",
"325 -12 CURVE SMOOTH",
"275 -12 OFFCURVE",
"250 16 OFFCURVE",
"250 70 CURVE SMOOTH",
"250 125 OFFCURVE",
"275 152 OFFCURVE",
"325 152 CURVE SMOOTH"
);
}
);
width = 600;
}
);
unicode = 0021;
},
{
glyphname = exclamdbl;
lastChange = "2012-07-28 23:40:59 +0000";
layers = (
{
layerId = "C6C3B4F4-9047-4AEA-9672-C83927A9B560";
name = Regular;
paths = (
{
closed = 1;
nodes = (
"497 249 LINE",
"426 249 LINE",
"396 865 LINE",
"527 865 LINE"
);
},
{
closed = 1;
nodes = (
"511 152 OFFCURVE",
"535 125 OFFCURVE",
"535 70 CURVE SMOOTH",
"535 16 OFFCURVE",
"511 -12 OFFCURVE",
"461 -12 CURVE SMOOTH",
"411 -12 OFFCURVE",
"386 16 OFFCURVE",
"386 70 CURVE SMOOTH",
"386 125 OFFCURVE",
"411 152 OFFCURVE",
"461 152 CURVE SMOOTH"
);
},
{
closed = 1;
nodes = (
"225 249 LINE",
"154 249 LINE",
"124 865 LINE",
"255 865 LINE"
);
},
{
closed = 1;
nodes = (
"238 152 OFFCURVE",
"263 125 OFFCURVE",
"263 70 CURVE SMOOTH",
"263 16 OFFCURVE",
"238 -12 OFFCURVE",
"188 -12 CURVE SMOOTH",
"138 -12 OFFCURVE",
"114 16 OFFCURVE",
"114 70 CURVE SMOOTH",
"114 125 OFFCURVE",
"138 152 OFFCURVE",
"188 152 CURVE SMOOTH"
);
}
);
width = 600;
}
);
unicode = 203C;
},
{
glyphname = exclamdown;
lastChange = "2012-07-28 23:40:59 +0000";
layers = (
{
layerId = "C6C3B4F4-9047-4AEA-9672-C83927A9B560";
name = Regular;
paths = (
{
closed = 1;
nodes = (
"275 358 OFFCURVE",
"250 385 OFFCURVE",
"250 439 CURVE SMOOTH",
"250 494 OFFCURVE",
"275 521 OFFCURVE",
"325 521 CURVE SMOOTH",
"375 521 OFFCURVE",
"400 494 OFFCURVE",
"400 439 CURVE SMOOTH",
"400 385 OFFCURVE",
"375 358 OFFCURVE",
"325 358 CURVE SMOOTH"
);
},
{
closed = 1;
nodes = (
"289 261 LINE",
"360 261 LINE",
"390 -356 LINE",
"259 -356 LINE"
);
}
);
width = 600;
}
);
unicode = 00A1;
},
{
glyphname = numbersign;
lastChange = "2012-07-28 23:40:59 +0000";
layers = (
{
layerId = "C6C3B4F4-9047-4AEA-9672-C83927A9B560";
name = Regular;
paths = (
{
closed = 1;
nodes = (
"515 536 LINE",
"477 343 LINE",
"618 343 LINE",
"618 263 LINE",
"462 263 LINE",
"413 11 LINE",
"326 11 LINE",
"376 263 LINE",
"205 263 LINE",
"157 11 LINE",
"72 11 LINE",
"118 263 LINE",
"-9 263 LINE",
"-9 343 LINE",
"134 343 LINE",
"172 536 LINE",
"35 536 LINE",
"35 617 LINE",
"187 617 LINE",
"235 871 LINE",
"322 871 LINE",
"273 617 LINE",
"446 617 LINE",
"495 871 LINE",
"580 871 LINE",
"531 617 LINE",
"661 617 LINE",
"661 536 LINE"
);
},
{
closed = 1;
nodes = (
"221 343 LINE",
"392 343 LINE",
"429 536 LINE",
"258 536 LINE"
);
}
);
width = 600;
}
);
unicode = 0023;
},
{
glyphname = period;
lastChange = "2012-09-05 22:43:11 +0000";
layers = (
{
layerId = "C6C3B4F4-9047-4AEA-9672-C83927A9B560";
name = Regular;
paths = (
{
closed = 1;
nodes = (
"338 134 OFFCURVE",
"359 112 OFFCURVE",
"359 67 CURVE SMOOTH",
"359 22 OFFCURVE",
"338 0 OFFCURVE",
"297 0 CURVE SMOOTH",
"257 0 OFFCURVE",
"236 22 OFFCURVE",
"236 67 CURVE SMOOTH",
"236 112 OFFCURVE",
"257 134 OFFCURVE",
"297 134 CURVE SMOOTH"
);
}
);
width = 600;
}
);
unicode = 002E;
},
{
glyphname = periodcentered;
lastChange = "2012-07-28 23:40:59 +0000";
layers = (
{
layerId = "C6C3B4F4-9047-4AEA-9672-C83927A9B560";
name = Regular;
paths = (
{
closed = 1;
nodes = (
"375 515 OFFCURVE",
"400 488 OFFCURVE",
"400 433 CURVE SMOOTH",
"400 378 OFFCURVE",
"375 351 OFFCURVE",
"325 351 CURVE SMOOTH",
"275 351 OFFCURVE",
"250 378 OFFCURVE",
"250 433 CURVE SMOOTH",
"250 488 OFFCURVE",
"275 515 OFFCURVE",
"325 515 CURVE SMOOTH"
);
}
);
width = 600;
}
);
unicode = 00B7;
},
{
glyphname = question;
lastChange = "2012-07-28 23:40:59 +0000";
layers = (
{
layerId = "C6C3B4F4-9047-4AEA-9672-C83927A9B560";
name = Regular;
paths = (
{
closed = 1;
nodes = (
"237 253 LINE",
"237 275 LINE SMOOTH",
"237 369 OFFCURVE",
"269 418 OFFCURVE",
"359 482 CURVE SMOOTH",
"461 558 OFFCURVE",
"484 588 OFFCURVE",
"484 666 CURVE SMOOTH",
"484 738 OFFCURVE",
"422 788 OFFCURVE",
"319 788 CURVE SMOOTH",
"251 788 OFFCURVE",
"178 770 OFFCURVE",
"101 735 CURVE",
"62 825 LINE",
"144 863 OFFCURVE",
"228 882 OFFCURVE",
"313 882 CURVE SMOOTH",
"481 882 OFFCURVE",
"587 799 OFFCURVE",
"587 671 CURVE SMOOTH",
"587 566 OFFCURVE",
"552 516 OFFCURVE",
"440 431 CURVE SMOOTH",
"347 363 OFFCURVE",
"331 334 OFFCURVE",
"331 263 CURVE SMOOTH",
"331 253 LINE"
);
},
{
closed = 1;
nodes = (
"339 156 OFFCURVE",
"364 129 OFFCURVE",
"364 75 CURVE SMOOTH",
"364 20 OFFCURVE",
"339 -8 OFFCURVE",
"289 -8 CURVE SMOOTH",
"239 -8 OFFCURVE",
"214 20 OFFCURVE",
"214 75 CURVE SMOOTH",
"214 129 OFFCURVE",
"239 156 OFFCURVE",
"289 156 CURVE SMOOTH"
);
}
);
width = 600;
}
);
unicode = 003F;
},
{
glyphname = questiondown;
lastChange = "2012-07-28 23:40:59 +0000";
layers = (
{
layerId = "C6C3B4F4-9047-4AEA-9672-C83927A9B560";
name = Regular;
paths = (
{
closed = 1;
nodes = (
"309 353 OFFCURVE",
"285 380 OFFCURVE",
"285 435 CURVE SMOOTH",
"285 490 OFFCURVE",
"309 517 OFFCURVE",
"359 517 CURVE SMOOTH",
"409 517 OFFCURVE",
"434 490 OFFCURVE",
"434 435 CURVE SMOOTH",
"434 380 OFFCURVE",
"409 353 OFFCURVE",
"359 353 CURVE SMOOTH"
);
},
{
closed = 1;
nodes = (
"411 257 LINE",
"411 235 LINE SMOOTH",
"411 142 OFFCURVE",
"382 94 OFFCURVE",
"289 28 CURVE SMOOTH",
"188 -48 OFFCURVE",
"164 -77 OFFCURVE",
"164 -157 CURVE SMOOTH",
"164 -230 OFFCURVE",
"226 -278 OFFCURVE",
"329 -278 CURVE SMOOTH",
"400 -278 OFFCURVE",
"473 -260 OFFCURVE",
"547 -225 CURVE",
"583 -310 LINE",
"498 -351 OFFCURVE",
"415 -372 OFFCURVE",
"335 -372 CURVE SMOOTH",
"165 -372 OFFCURVE",
"62 -289 OFFCURVE",
"62 -161 CURVE SMOOTH",
"62 -56 OFFCURVE",
"96 -6 OFFCURVE",
"209 79 CURVE SMOOTH",
"302 147 OFFCURVE",
"317 175 OFFCURVE",
"317 246 CURVE SMOOTH",
"317 257 LINE"
);
}
);
width = 600;
}
);
unicode = 00BF;
},
{
glyphname = quotedbl;
lastChange = "2012-07-28 23:40:59 +0000";
layers = (
{
layerId = "C6C3B4F4-9047-4AEA-9672-C83927A9B560";
name = Regular;
paths = (
{
closed = 1;
nodes = (
"271 1063 LINE",
"247 753 LINE",
"156 753 LINE",
"132 1063 LINE"
);
},
{
closed = 1;
nodes = (
"519 1063 LINE",
"495 753 LINE",
"404 753 LINE",
"380 1063 LINE"
);
}
);
width = 600;
}
);
unicode = 0022;
},
{
glyphname = quotesingle;
lastChange = "2012-07-28 23:40:59 +0000";
layers = (
{
layerId = "C6C3B4F4-9047-4AEA-9672-C83927A9B560";
name = Regular;
paths = (
{
closed = 1;
nodes = (
"395 1063 LINE",
"371 753 LINE",
"280 753 LINE",
"256 1063 LINE"
);
}
);
width = 600;
}
);
unicode = 0027;
},
{
glyphname = semicolon;
lastChange = "2012-07-28 23:40:59 +0000";
layers = (
{
layerId = "C6C3B4F4-9047-4AEA-9672-C83927A9B560";
name = Regular;
paths = (
{
closed = 1;
nodes = (
"365 550 OFFCURVE",
"389 523 OFFCURVE",
"389 468 CURVE SMOOTH",
"389 413 OFFCURVE",
"365 386 OFFCURVE",
"315 386 CURVE SMOOTH",
"265 386 OFFCURVE",
"240 413 OFFCURVE",
"240 468 CURVE SMOOTH",
"240 523 OFFCURVE",
"265 550 OFFCURVE",
"315 550 CURVE SMOOTH"
);
},
{
closed = 1;
nodes = (
"366 27 LINE",
"375 14 LINE",
"355 -63 OFFCURVE",
"320 -157 OFFCURVE",
"271 -268 CURVE",
"191 -268 LINE",
"215 -168 OFFCURVE",
"235 -70 OFFCURVE",
"249 27 CURVE"
);
}
);
width = 600;
}
);
unicode = 003B;
},
{
glyphname = slash;
lastChange = "2012-07-28 23:40:59 +0000";
layers = (
{
layerId = "C6C3B4F4-9047-4AEA-9672-C83927A9B560";
name = Regular;
paths = (
{
closed = 1;
nodes = (
"561 871 LINE",
"192 11 LINE",
"88 11 LINE",
"457 871 LINE"
);
}
);
width = 600;
}
);
unicode = 002F;
},
{
glyphname = underscore;
lastChange = "2012-07-29 00:35:19 +0000";
layers = (
{
layerId = "C6C3B4F4-9047-4AEA-9672-C83927A9B560";
name = Regular;
paths = (
{
closed = 1;
nodes = (
"695 -185 LINE",
"-46 -185 LINE",
"-46 -103 LINE",
"695 -103 LINE"
);
}
);
width = 600;
}
);
unicode = 005F;
},
{
glyphname = underscoredbl;
lastChange = "2012-07-29 00:35:49 +0000";
layers = (
{
layerId = "C6C3B4F4-9047-4AEA-9672-C83927A9B560";
name = Regular;
paths = (
{
closed = 1;
nodes = (
"699 -3 LINE",
"-48 -3 LINE",
"-48 79 LINE",
"699 79 LINE"
);
},
{
closed = 1;
nodes = (
"699 -167 LINE",
"-48 -167 LINE",
"-48 -85 LINE",
"699 -85 LINE"
);
}
);
width = 600;
}
);
unicode = 2017;
},
{
glyphname = braceleft;
lastChange = "2012-07-28 23:40:59 +0000";
layers = (
{
layerId = "C6C3B4F4-9047-4AEA-9672-C83927A9B560";
name = Regular;
paths = (
{
closed = 1;
nodes = (
"402 -65 LINE SMOOTH",
"402 -129 OFFCURVE",
"439 -156 OFFCURVE",
"552 -158 CURVE",
"552 -246 LINE",
"380 -244 OFFCURVE",
"295 -186 OFFCURVE",
"295 -74 CURVE SMOOTH",
"295 123 LINE SMOOTH",
"295 197 OFFCURVE",
"228 234 OFFCURVE",
"96 234 CURVE",
"96 325 LINE",
"228 325 OFFCURVE",
"295 362 OFFCURVE",
"295 436 CURVE SMOOTH",
"295 632 LINE SMOOTH",
"295 744 OFFCURVE",
"380 802 OFFCURVE",
"552 804 CURVE",
"552 717 LINE",
"439 715 OFFCURVE",
"402 687 OFFCURVE",
"402 624 CURVE SMOOTH",
"402 428 LINE SMOOTH",
"402 347 OFFCURVE",
"356 298 OFFCURVE",
"265 283 CURVE",
"265 275 LINE",
"356 260 OFFCURVE",
"402 211 OFFCURVE",
"402 130 CURVE SMOOTH"
);
}
);
width = 600;
}
);
unicode = 007B;
},
{
glyphname = braceright;
lastChange = "2012-07-28 23:40:59 +0000";
layers = (
{
layerId = "C6C3B4F4-9047-4AEA-9672-C83927A9B560";
name = Regular;
paths = (
{
closed = 1;
nodes = (
"249 130 LINE SMOOTH",
"249 211 OFFCURVE",
"294 260 OFFCURVE",
"386 275 CURVE",
"386 283 LINE",
"294 298 OFFCURVE",
"249 347 OFFCURVE",
"249 428 CURVE SMOOTH",
"249 624 LINE SMOOTH",
"249 687 OFFCURVE",
"210 716 OFFCURVE",
"98 717 CURVE",
"98 804 LINE",
"270 802 OFFCURVE",
"356 744 OFFCURVE",
"356 632 CURVE SMOOTH",
"356 436 LINE SMOOTH",
"356 362 OFFCURVE",
"423 325 OFFCURVE",
"555 325 CURVE",
"555 234 LINE",
"423 234 OFFCURVE",
"356 197 OFFCURVE",
"356 123 CURVE SMOOTH",
"356 -74 LINE SMOOTH",
"356 -186 OFFCURVE",
"270 -244 OFFCURVE",
"98 -246 CURVE",
"98 -158 LINE",
"210 -157 OFFCURVE",
"249 -129 OFFCURVE",
"249 -65 CURVE SMOOTH"
);
}
);
width = 600;
}
);
unicode = 007D;
},
{
glyphname = bracketleft;
lastChange = "2012-07-28 23:40:59 +0000";
layers = (
{
layerId = "C6C3B4F4-9047-4AEA-9672-C83927A9B560";
name = Regular;
paths = (
{
closed = 1;
nodes = (
"542 -246 LINE",
"232 -246 LINE",
"232 804 LINE",
"542 804 LINE",
"542 717 LINE",
"339 717 LINE",
"339 -158 LINE",
"542 -158 LINE"
);
}
);
width = 600;
}
);
unicode = 005B;
},
{
glyphname = bracketright;
lastChange = "2012-07-28 23:40:59 +0000";
layers = (
{
layerId = "C6C3B4F4-9047-4AEA-9672-C83927A9B560";
name = Regular;
paths = (
{
closed = 1;
nodes = (
"109 -158 LINE",
"312 -158 LINE",
"312 717 LINE",
"109 717 LINE",
"109 804 LINE",
"419 804 LINE",
"419 -246 LINE",
"109 -246 LINE"
);
}
);
width = 600;
}
);
unicode = 005D;
},
{
glyphname = parenleft;
lastChange = "2012-07-28 23:40:59 +0000";
layers = (
{
layerId = "C6C3B4F4-9047-4AEA-9672-C83927A9B560";
name = Regular;
paths = (
{
closed = 1;
nodes = (
"512 804 LINE",
"336 657 OFFCURVE",
"248 482 OFFCURVE",
"248 279 CURVE SMOOTH",
"248 75 OFFCURVE",
"335 -100 OFFCURVE",
"511 -246 CURVE",
"398 -246 LINE",
"224 -108 OFFCURVE",
"137 67 OFFCURVE",
"137 278 CURVE SMOOTH",
"137 487 OFFCURVE",
"224 662 OFFCURVE",
"398 804 CURVE"
);
}
);
width = 600;
}
);
unicode = 0028;
},
{
glyphname = parenright;
lastChange = "2012-07-28 23:40:59 +0000";
layers = (
{
layerId = "C6C3B4F4-9047-4AEA-9672-C83927A9B560";
name = Regular;
paths = (
{
closed = 1;
nodes = (
"140 -246 LINE",
"315 -101 OFFCURVE",
"403 74 OFFCURVE",
"403 279 CURVE SMOOTH",
"403 482 OFFCURVE",
"315 657 OFFCURVE",
"139 804 CURVE",
"252 804 LINE",
"427 663 OFFCURVE",
"514 487 OFFCURVE",
"514 278 CURVE SMOOTH",
"514 66 OFFCURVE",
"427 -109 OFFCURVE",
"252 -246 CURVE"
);
}
);
width = 600;
}
);
unicode = 0029;
},
{
glyphname = afii00208;
lastChange = "2012-07-28 23:40:59 +0000";
layers = (
{
layerId = "C6C3B4F4-9047-4AEA-9672-C83927A9B560";
name = Regular;
paths = (
{
closed = 1;
nodes = (
"-39 210 LINE",
"-39 308 LINE",
"691 308 LINE",
"691 210 LINE"
);
}
);
width = 600;
}
);
},
{
glyphname = emdash;
lastChange = "2012-07-28 23:40:59 +0000";
layers = (
{
layerId = "C6C3B4F4-9047-4AEA-9672-C83927A9B560";
name = Regular;
paths = (
{
closed = 1;
nodes = (
"-39 210 LINE",
"-39 308 LINE",
"691 308 LINE",
"691 210 LINE"
);
}
);
width = 600;
}
);
unicode = 2014;
},
{
glyphname = endash;
lastChange = "2012-07-28 23:40:59 +0000";
layers = (
{
layerId = "C6C3B4F4-9047-4AEA-9672-C83927A9B560";
name = Regular;
paths = (
{
closed = 1;
nodes = (
"72 210 LINE",
"72 308 LINE",
"578 308 LINE",
"578 210 LINE"
);
}
);
width = 600;
}
);
unicode = 2013;
},
{
glyphname = hyphen;
lastChange = "2012-07-28 23:40:59 +0000";
layers = (
{
layerId = "C6C3B4F4-9047-4AEA-9672-C83927A9B560";
name = Regular;
paths = (
{
closed = 1;
nodes = (
"132 210 LINE",
"132 308 LINE",
"519 308 LINE",
"519 210 LINE"
);
}
);
width = 600;
}
);
unicode = 002D;
},
{
glyphname = uni00AD;
lastChange = "2012-07-28 23:40:59 +0000";
layers = (
{
layerId = "C6C3B4F4-9047-4AEA-9672-C83927A9B560";
name = Regular;
paths = (
{
closed = 1;
nodes = (
"132 210 LINE",
"132 308 LINE",
"519 308 LINE",
"519 210 LINE"
);
}
);
width = 600;
}
);
},
{
glyphname = guillemotleft;
lastChange = "2012-07-28 23:40:59 +0000";
layers = (
{
layerId = "C6C3B4F4-9047-4AEA-9672-C83927A9B560";
name = Regular;
paths = (
{
closed = 1;
nodes = (
"80 258 LINE",
"261 502 LINE",
"330 456 LINE",
"190 251 LINE",
"330 46 LINE",
"261 0 LINE",
"80 242 LINE"
);
},
{
closed = 1;
nodes = (
"319 258 LINE",
"501 502 LINE",
"570 456 LINE",
"430 251 LINE",
"570 46 LINE",
"501 0 LINE",
"319 242 LINE"
);
}
);
width = 600;
}
);
unicode = 00AB;
},
{
glyphname = guillemotright;
lastChange = "2012-07-28 23:40:59 +0000";
layers = (
{
layerId = "C6C3B4F4-9047-4AEA-9672-C83927A9B560";
name = Regular;
paths = (
{
closed = 1;
nodes = (
"570 242 LINE",
"388 0 LINE",
"319 46 LINE",
"459 251 LINE",
"319 456 LINE",
"388 502 LINE",
"570 258 LINE"
);
},
{
closed = 1;
nodes = (
"330 242 LINE",
"148 0 LINE",
"80 46 LINE",
"219 251 LINE",
"80 456 LINE",
"148 502 LINE",
"330 258 LINE"
);
}
);
width = 600;
}
);
unicode = 00BB;
},
{
glyphname = guilsinglleft;
lastChange = "2012-07-28 23:40:59 +0000";
layers = (
{
layerId = "C6C3B4F4-9047-4AEA-9672-C83927A9B560";
name = Regular;
paths = (
{
closed = 1;
nodes = (
"200 258 LINE",
"382 502 LINE",
"450 456 LINE",
"311 251 LINE",
"450 46 LINE",
"382 0 LINE",
"200 242 LINE"
);
}
);
width = 600;
}
);
unicode = 2039;
},
{
glyphname = guilsinglright;
lastChange = "2012-07-28 23:40:59 +0000";
layers = (
{
layerId = "C6C3B4F4-9047-4AEA-9672-C83927A9B560";
name = Regular;
paths = (
{
closed = 1;
nodes = (
"450 242 LINE",
"269 0 LINE",
"200 46 LINE",
"340 251 LINE",
"200 456 LINE",
"269 502 LINE",
"450 258 LINE"
);
}
);
width = 600;
}
);
unicode = 203A;
},
{
glyphname = quotedblbase;
lastChange = "2012-07-28 23:40:59 +0000";
layers = (
{
layerId = "C6C3B4F4-9047-4AEA-9672-C83927A9B560";
name = Regular;
paths = (
{
closed = 1;
nodes = (
"283 -155 LINE",
"291 -169 LINE",
"270 -252 OFFCURVE",
"235 -347 OFFCURVE",
"188 -451 CURVE",
"107 -451 LINE",
"135 -336 OFFCURVE",
"155 -238 OFFCURVE",
"166 -155 CURVE"
);
},
{
closed = 1;
nodes = (
"534 -155 LINE",
"542 -169 LINE",
"522 -246 OFFCURVE",
"487 -340 OFFCURVE",
"438 -451 CURVE",
"358 -451 LINE",
"385 -336 OFFCURVE",
"405 -238 OFFCURVE",
"417 -155 CURVE"
);
}
);
width = 600;
}
);
unicode = 201E;
},
{
glyphname = quotedblleft;
lastChange = "2012-07-28 23:40:59 +0000";
layers = (
{
layerId = "C6C3B4F4-9047-4AEA-9672-C83927A9B560";
name = Regular;
paths = (
{
closed = 1;
nodes = (
"360 774 LINE",
"351 787 LINE",
"372 868 OFFCURVE",
"407 962 OFFCURVE",
"455 1069 CURVE",
"548 1069 LINE",
"523 969 OFFCURVE",
"503 871 OFFCURVE",
"489 774 CURVE"
);
},
{
closed = 1;
nodes = (
"109 774 LINE",
"100 787 LINE",
"122 868 OFFCURVE",
"156 962 OFFCURVE",
"205 1069 CURVE",
"297 1069 LINE",
"273 969 OFFCURVE",
"253 871 OFFCURVE",
"238 774 CURVE"
);
}
);
width = 600;
}
);
unicode = 201C;
},
{
glyphname = quotedblright;
lastChange = "2012-07-28 23:40:59 +0000";
layers = (
{
layerId = "C6C3B4F4-9047-4AEA-9672-C83927A9B560";
name = Regular;
paths = (
{
closed = 1;
nodes = (
"289 1069 LINE",
"297 1056 LINE",
"275 972 OFFCURVE",
"241 878 OFFCURVE",
"193 774 CURVE",
"100 774 LINE",
"126 878 OFFCURVE",
"146 977 OFFCURVE",
"160 1069 CURVE"
);
},
{
closed = 1;
nodes = (
"539 1069 LINE",
"548 1056 LINE",
"526 972 OFFCURVE",
"492 878 OFFCURVE",
"444 774 CURVE",
"351 774 LINE",
"376 878 OFFCURVE",
"396 977 OFFCURVE",
"410 1069 CURVE"
);
}
);
width = 600;
}
);
unicode = 201D;
},
{
glyphname = quoteleft;
lastChange = "2012-07-28 23:40:59 +0000";
layers = (
{
layerId = "C6C3B4F4-9047-4AEA-9672-C83927A9B560";
name = Regular;
paths = (
{
closed = 1;
nodes = (
"235 774 LINE",
"226 787 LINE",
"247 868 OFFCURVE",
"282 962 OFFCURVE",
"330 1069 CURVE",
"422 1069 LINE",
"398 969 OFFCURVE",
"378 871 OFFCURVE",
"363 774 CURVE"
);
}
);
width = 600;
}
);
unicode = 2018;
},
{
glyphname = quotereversed;
lastChange = "2012-07-28 23:40:59 +0000";
layers = (
{
layerId = "C6C3B4F4-9047-4AEA-9672-C83927A9B560";
name = Regular;
paths = (
{
closed = 1;
nodes = (
"363 1069 LINE",
"379 967 OFFCURVE",
"399 869 OFFCURVE",
"422 774 CURVE",
"330 774 LINE",
"281 882 OFFCURVE",
"246 975 OFFCURVE",
"226 1056 CURVE",
"235 1069 LINE"
);
}
);
width = 600;
}
);
unicode = 201B;
},
{
glyphname = quoteright;
lastChange = "2012-07-28 23:40:59 +0000";
layers = (
{
layerId = "C6C3B4F4-9047-4AEA-9672-C83927A9B560";
name = Regular;
paths = (
{
closed = 1;
nodes = (
"414 1069 LINE",
"422 1056 LINE",
"400 972 OFFCURVE",
"366 878 OFFCURVE",
"319 774 CURVE",
"226 774 LINE",
"251 878 OFFCURVE",
"271 977 OFFCURVE",
"285 1069 CURVE"
);
}
);
width = 600;
}
);
unicode = 2019;
},
{
glyphname = quotesinglbase;
lastChange = "2012-07-28 23:40:59 +0000";
layers = (
{
layerId = "C6C3B4F4-9047-4AEA-9672-C83927A9B560";
name = Regular;
paths = (
{
closed = 1;
nodes = (
"408 -155 LINE",
"417 -169 LINE",
"395 -252 OFFCURVE",
"361 -347 OFFCURVE",
"313 -451 CURVE",
"232 -451 LINE",
"260 -336 OFFCURVE",
"280 -238 OFFCURVE",
"291 -155 CURVE"
);
}
);
width = 600;
}
);
unicode = 201A;
},
{
glyphname = anoteleia;
lastChange = "2012-07-28 23:40:59 +0000";
layers = (
{
layerId = "C6C3B4F4-9047-4AEA-9672-C83927A9B560";
name = Regular;
paths = (
{
closed = 1;
nodes = (
"375 515 OFFCURVE",
"400 488 OFFCURVE",
"400 433 CURVE SMOOTH",
"400 378 OFFCURVE",
"375 351 OFFCURVE",
"325 351 CURVE SMOOTH",
"275 351 OFFCURVE",
"250 378 OFFCURVE",
"250 433 CURVE SMOOTH",
"250 488 OFFCURVE",
"275 515 OFFCURVE",
"325 515 CURVE SMOOTH"
);
}
);
width = 600;
}
);
unicode = 0387;
},
{
glyphname = florin;
lastChange = "2012-07-28 23:50:15 +0000";
layers = (
{
layerId = "C6C3B4F4-9047-4AEA-9672-C83927A9B560";
name = Regular;
paths = (
{
closed = 1;
nodes = (
"357 406 LINE",
"357 -159 LINE SMOOTH",
"357 -308 OFFCURVE",
"302 -375 OFFCURVE",
"162 -375 CURVE SMOOTH",
"142 -375 OFFCURVE",
"118 -372 OFFCURVE",
"91 -367 CURVE",
"91 -277 LINE",
"113 -284 OFFCURVE",
"136 -287 OFFCURVE",
"158 -287 CURVE SMOOTH",
"231 -287 OFFCURVE",
"249 -249 OFFCURVE",
"249 -161 CURVE SMOOTH",
"249 406 LINE",
"135 406 LINE",
"135 450 LINE",
"249 490 LINE",
"249 571 LINE SMOOTH",
"249 719 OFFCURVE",
"304 786 OFFCURVE",
"445 786 CURVE SMOOTH",
"483 786 OFFCURVE",
"521 779 OFFCURVE",
"561 765 CURVE",
"533 682 LINE",
"502 693 OFFCURVE",
"473 698 OFFCURVE",
"448 698 CURVE SMOOTH",
"376 698 OFFCURVE",
"357 661 OFFCURVE",
"357 572 CURVE SMOOTH",
"357 486 LINE",
"501 486 LINE",
"501 406 LINE"
);
}
);
width = 600;
}
);
unicode = 0192;
},
{
glyphname = dasiaoxia;
lastChange = "2012-07-28 23:50:15 +0000";
layers = (
{
layerId = "C6C3B4F4-9047-4AEA-9672-C83927A9B560";
name = Regular;
paths = (
{
closed = 1;
nodes = (
"137 1046 OFFCURVE",
"183 1093 OFFCURVE",
"279 1117 CURVE",
"279 1072 LINE",
"256 1063 OFFCURVE",
"239 1054 OFFCURVE",
"227 1046 CURVE SMOOTH",
"216 1037 OFFCURVE",
"210 1027 OFFCURVE",
"210 1018 CURVE SMOOTH",
"210 1003 OFFCURVE",
"225 998 OFFCURVE",
"239 991 CURVE SMOOTH",
"253 985 OFFCURVE",
"268 977 OFFCURVE",
"268 955 CURVE SMOOTH",
"268 926 OFFCURVE",
"247 910 OFFCURVE",
"211 910 CURVE SMOOTH",
"165 910 OFFCURVE",
"137 940 OFFCURVE",
"137 985 CURVE SMOOTH"
);
},
{
closed = 1;
nodes = (
"319 930 LINE",
"327 953 OFFCURVE",
"337 984 OFFCURVE",
"347 1015 CURVE SMOOTH",
"356 1046 OFFCURVE",
"365 1079 OFFCURVE",
"371 1107 CURVE",
"493 1107 LINE",
"493 1095 LINE",
"479 1070 OFFCURVE",
"460 1039 OFFCURVE",
"438 1007 CURVE SMOOTH",
"416 976 OFFCURVE",
"391 943 OFFCURVE",
"367 914 CURVE",
"319 914 LINE"
);
}
);
width = 600;
}
);
unicode = 1FDE;
},
{
glyphname = cent;
lastChange = "2012-07-28 23:50:15 +0000";
layers = (
{
layerId = "C6C3B4F4-9047-4AEA-9672-C83927A9B560";
name = Regular;
paths = (
{
closed = 1;
nodes = (
"402 787 LINE",
"465 786 OFFCURVE",
"528 774 OFFCURVE",
"589 752 CURVE",
"553 659 LINE",
"494 682 OFFCURVE",
"441 693 OFFCURVE",
"395 693 CURVE SMOOTH",
"250 693 OFFCURVE",
"177 612 OFFCURVE",
"177 449 CURVE SMOOTH",
"177 291 OFFCURVE",
"247 211 OFFCURVE",
"389 211 CURVE SMOOTH",
"449 211 OFFCURVE",
"512 223 OFFCURVE",
"578 247 CURVE",
"578 154 LINE",
"530 131 OFFCURVE",
"471 118 OFFCURVE",
"402 117 CURVE",
"402 -1 LINE",
"321 -1 LINE",
"321 121 LINE",
"151 148 OFFCURVE",
"66 257 OFFCURVE",
"66 448 CURVE SMOOTH",
"66 642 OFFCURVE",
"151 754 OFFCURVE",
"321 782 CURVE",
"321 884 LINE",
"402 884 LINE"
);
}
);
width = 600;
}
);
unicode = 00A2;
},
{
glyphname = currency;
lastChange = "2012-07-28 23:50:15 +0000";
layers = (
{
layerId = "C6C3B4F4-9047-4AEA-9672-C83927A9B560";
name = Regular;
paths = (
{
closed = 1;
nodes = (
"66 635 LINE",
"124 692 LINE",
"199 616 LINE",
"238 643 OFFCURVE",
"281 656 OFFCURVE",
"325 656 CURVE SMOOTH",
"370 656 OFFCURVE",
"412 643 OFFCURVE",
"451 616 CURVE",
"526 692 LINE",
"585 636 LINE",
"509 560 LINE",
"535 520 OFFCURVE",
"548 478 OFFCURVE",
"548 433 CURVE SMOOTH",
"548 386 OFFCURVE",
"535 344 OFFCURVE",
"509 307 CURVE",
"583 232 LINE",
"526 176 LINE",
"451 250 LINE",
"412 225 OFFCURVE",
"370 212 OFFCURVE",
"325 212 CURVE SMOOTH",
"279 212 OFFCURVE",
"237 225 OFFCURVE",
"199 252 CURVE",
"124 177 LINE",
"68 233 LINE",
"142 308 LINE",
"117 345 OFFCURVE",
"104 387 OFFCURVE",
"104 433 CURVE SMOOTH",
"104 478 OFFCURVE",
"117 520 OFFCURVE",
"142 559 CURVE"
);
},
{
closed = 1;
nodes = (
"403 292 OFFCURVE",
"469 355 OFFCURVE",
"469 433 CURVE SMOOTH",
"469 513 OFFCURVE",
"405 577 OFFCURVE",
"325 577 CURVE SMOOTH",
"248 577 OFFCURVE",
"185 513 OFFCURVE",
"185 433 CURVE SMOOTH",
"185 355 OFFCURVE",
"248 292 OFFCURVE",
"325 292 CURVE SMOOTH"
);
}
);
width = 600;
}
);
unicode = 00A4;
},
{
glyphname = dollar;
lastChange = "2012-07-28 23:50:15 +0000";
layers = (
{
layerId = "C6C3B4F4-9047-4AEA-9672-C83927A9B560";
name = Regular;
paths = (
{
closed = 1;
nodes = (
"366 -65 LINE",
"285 -65 LINE",
"285 65 LINE",
"196 65 OFFCURVE",
"124 79 OFFCURVE",
"70 107 CURVE",
"70 208 LINE",
"148 172 OFFCURVE",
"219 154 OFFCURVE",
"285 154 CURVE",
"285 409 LINE",
"134 459 OFFCURVE",
"80 515 OFFCURVE",
"80 624 CURVE SMOOTH",
"80 727 OFFCURVE",
"156 798 OFFCURVE",
"285 814 CURVE",
"285 920 LINE",
"366 920 LINE",
"366 816 LINE",
"439 813 OFFCURVE",
"505 797 OFFCURVE",
"563 770 CURVE",
"525 685 LINE",
"470 709 OFFCURVE",
"417 723 OFFCURVE",
"366 727 CURVE",
"366 479 LINE",
"522 425 OFFCURVE",
"578 370 OFFCURVE",
"578 268 CURVE SMOOTH",
"578 158 OFFCURVE",
"507 93 OFFCURVE",
"366 71 CURVE"
);
},
{
closed = 1;
nodes = (
"285 725 LINE",
"218 714 OFFCURVE",
"184 680 OFFCURVE",
"184 623 CURVE SMOOTH",
"184 561 OFFCURVE",
"214 532 OFFCURVE",
"285 508 CURVE"
);
},
{
closed = 1;
nodes = (
"366 160 LINE",
"438 171 OFFCURVE",
"474 207 OFFCURVE",
"474 268 CURVE SMOOTH",
"474 318 OFFCURVE",
"438 355 OFFCURVE",
"366 379 CURVE"
);
}
);
width = 600;
}
);
unicode = 0024;
},
{
glyphname = franc;
lastChange = "2012-07-28 23:50:15 +0000";
layers = (
{
layerId = "C6C3B4F4-9047-4AEA-9672-C83927A9B560";
name = Regular;
paths = (
{
closed = 1;
nodes = (
"239 246 LINE",
"412 246 LINE",
"412 165 LINE",
"239 165 LINE",
"239 11 LINE",
"135 11 LINE",
"135 165 LINE",
"31 165 LINE",
"31 246 LINE",
"135 246 LINE",
"135 871 LINE",
"577 871 LINE",
"577 775 LINE",
"239 775 LINE",
"239 471 LINE",
"554 471 LINE",
"554 375 LINE",
"239 375 LINE"
);
}
);
width = 600;
}
);
unicode = 20A3;
},
{
glyphname = peseta;
lastChange = "2012-07-28 23:50:15 +0000";
layers = (
{
layerId = "C6C3B4F4-9047-4AEA-9672-C83927A9B560";
name = Regular;
paths = (
{
closed = 1;
nodes = (
"114 342 LINE",
"114 7 LINE",
"21 7 LINE",
"21 867 LINE",
"142 867 LINE SMOOTH",
"318 867 OFFCURVE",
"406 783 OFFCURVE",
"406 615 CURVE SMOOTH",
"406 442 OFFCURVE",
"315 342 OFFCURVE",
"138 342 CURVE SMOOTH"
);
},
{
closed = 1;
nodes = (
"114 427 LINE",
"138 427 LINE SMOOTH",
"253 427 OFFCURVE",
"310 488 OFFCURVE",
"310 609 CURVE SMOOTH",
"310 723 OFFCURVE",
"258 780 OFFCURVE",
"152 780 CURVE SMOOTH",
"114 780 LINE"
);
},
{
closed = 1;
nodes = (
"673 14 LINE",
"648 2 OFFCURVE",
"615 -5 OFFCURVE",
"575 -5 CURVE SMOOTH",
"489 -5 OFFCURVE",
"445 50 OFFCURVE",
"445 161 CURVE SMOOTH",
"445 370 LINE",
"378 370 LINE",
"378 412 LINE",
"445 442 LINE",
"483 568 LINE",
"534 568 LINE",
"534 444 LINE",
"657 444 LINE",
"657 370 LINE",
"534 370 LINE",
"534 166 LINE SMOOTH",
"534 106 OFFCURVE",
"556 76 OFFCURVE",
"601 76 CURVE SMOOTH",
"625 76 OFFCURVE",
"649 80 OFFCURVE",
"673 87 CURVE"
);
}
);
width = 600;
}
);
unicode = 20A7;
},
{
glyphname = sterling;
lastChange = "2012-07-28 23:50:15 +0000";
layers = (
{
layerId = "C6C3B4F4-9047-4AEA-9672-C83927A9B560";
name = Regular;
paths = (
{
closed = 1;
nodes = (
"551 754 LINE",
"495 783 OFFCURVE",
"442 797 OFFCURVE",
"391 797 CURVE SMOOTH",
"303 797 OFFCURVE",
"259 748 OFFCURVE",
"259 652 CURVE SMOOTH",
"259 478 LINE",
"481 478 LINE",
"481 398 LINE",
"259 398 LINE",
"259 274 LINE SMOOTH",
"259 197 OFFCURVE",
"232 143 OFFCURVE",
"177 113 CURVE",
"617 113 LINE",
"617 15 LINE",
"34 15 LINE",
"34 106 LINE",
"112 125 OFFCURVE",
"152 180 OFFCURVE",
"152 273 CURVE SMOOTH",
"152 398 LINE",
"35 398 LINE",
"35 478 LINE",
"152 478 LINE",
"152 669 LINE SMOOTH",
"152 801 OFFCURVE",
"244 886 OFFCURVE",
"386 886 CURVE SMOOTH",
"461 886 OFFCURVE",
"529 870 OFFCURVE",
"589 839 CURVE"
);
}
);
width = 600;
}
);
unicode = 00A3;
},
{
glyphname = yen;
lastChange = "2012-07-28 23:50:15 +0000";
layers = (
{
layerId = "C6C3B4F4-9047-4AEA-9672-C83927A9B560";
name = Regular;
paths = (
{
closed = 1;
nodes = (
"324 436 LINE",
"527 871 LINE",
"640 871 LINE",
"413 419 LINE",
"554 419 LINE",
"554 339 LINE",
"377 339 LINE",
"377 246 LINE",
"554 246 LINE",
"554 165 LINE",
"377 165 LINE",
"377 11 LINE",
"272 11 LINE",
"272 165 LINE",
"95 165 LINE",
"95 246 LINE",
"272 246 LINE",
"272 339 LINE",
"95 339 LINE",
"95 419 LINE",
"232 419 LINE",
"10 871 LINE",
"122 871 LINE"
);
}
);
width = 600;
}
);
unicode = 00A5;
},
{
glyphname = approxequal;
lastChange = "2012-07-28 23:50:15 +0000";
layers = (
{
layerId = "C6C3B4F4-9047-4AEA-9672-C83927A9B560";
name = Regular;
paths = (
{
closed = 1;
nodes = (
"53 565 LINE",
"91 608 OFFCURVE",
"140 629 OFFCURVE",
"198 629 CURVE SMOOTH",
"237 629 OFFCURVE",
"285 617 OFFCURVE",
"344 592 CURVE SMOOTH",
"394 570 OFFCURVE",
"434 559 OFFCURVE",
"462 559 CURVE SMOOTH",
"505 559 OFFCURVE",
"550 583 OFFCURVE",
"596 631 CURVE",
"596 535 LINE",
"558 493 OFFCURVE",
"510 472 OFFCURVE",
"450 472 CURVE SMOOTH",
"411 472 OFFCURVE",
"362 484 OFFCURVE",
"305 509 CURVE SMOOTH",
"255 531 OFFCURVE",
"215 541 OFFCURVE",
"187 541 CURVE SMOOTH",
"142 541 OFFCURVE",
"98 518 OFFCURVE",
"53 470 CURVE"
);
},
{
closed = 1;
nodes = (
"53 325 LINE",
"92 367 OFFCURVE",
"140 388 OFFCURVE",
"198 388 CURVE SMOOTH",
"238 388 OFFCURVE",
"286 376 OFFCURVE",
"344 351 CURVE SMOOTH",
"395 329 OFFCURVE",
"435 318 OFFCURVE",
"462 318 CURVE SMOOTH",
"505 318 OFFCURVE",
"550 342 OFFCURVE",
"596 389 CURVE",
"596 294 LINE",
"557 252 OFFCURVE",
"508 231 OFFCURVE",
"450 231 CURVE SMOOTH",
"411 231 OFFCURVE",
"362 243 OFFCURVE",
"305 268 CURVE SMOOTH",
"254 289 OFFCURVE",
"214 301 OFFCURVE",
"187 301 CURVE SMOOTH",
"144 301 OFFCURVE",
"100 277 OFFCURVE",
"53 229 CURVE"
);
}
);
width = 600;
}
);
unicode = 2248;
},
{
glyphname = asciitilde;
lastChange = "2012-07-28 23:50:15 +0000";
layers = (
{
layerId = "C6C3B4F4-9047-4AEA-9672-C83927A9B560";
name = Regular;
paths = (
{
closed = 1;
nodes = (
"53 447 LINE",
"92 490 OFFCURVE",
"140 511 OFFCURVE",
"198 511 CURVE SMOOTH",
"238 511 OFFCURVE",
"286 498 OFFCURVE",
"344 474 CURVE SMOOTH",
"395 452 OFFCURVE",
"435 441 OFFCURVE",
"462 441 CURVE SMOOTH",
"505 441 OFFCURVE",
"550 464 OFFCURVE",
"596 512 CURVE",
"596 417 LINE",
"557 374 OFFCURVE",
"508 353 OFFCURVE",
"450 353 CURVE SMOOTH",
"411 353 OFFCURVE",
"362 366 OFFCURVE",
"305 390 CURVE SMOOTH",
"254 412 OFFCURVE",
"214 423 OFFCURVE",
"187 423 CURVE SMOOTH",
"144 423 OFFCURVE",
"100 400 OFFCURVE",
"53 352 CURVE"
);
}
);
width = 600;
}
);
unicode = 007E;
},
{
glyphname = divide;
lastChange = "2012-07-28 23:50:15 +0000";
layers = (
{
layerId = "C6C3B4F4-9047-4AEA-9672-C83927A9B560";
name = Regular;
paths = (
{
closed = 1;
nodes = (
"369 711 OFFCURVE",
"391 686 OFFCURVE",
"391 637 CURVE SMOOTH",
"391 588 OFFCURVE",
"369 564 OFFCURVE",
"324 564 CURVE SMOOTH",
"279 564 OFFCURVE",
"257 588 OFFCURVE",
"257 637 CURVE SMOOTH",
"257 686 OFFCURVE",
"279 711 OFFCURVE",
"324 711 CURVE SMOOTH"
);
},
{
closed = 1;
nodes = (
"53 388 LINE",
"53 476 LINE",
"596 476 LINE",
"596 388 LINE"
);
},
{
closed = 1;
nodes = (
"369 300 OFFCURVE",
"391 276 OFFCURVE",
"391 227 CURVE SMOOTH",
"391 178 OFFCURVE",
"369 153 OFFCURVE",
"324 153 CURVE SMOOTH",
"279 153 OFFCURVE",
"257 178 OFFCURVE",
"257 227 CURVE SMOOTH",
"257 276 OFFCURVE",
"279 300 OFFCURVE",
"324 300 CURVE SMOOTH"
);
}
);
width = 600;
}
);
unicode = 00F7;
},
{
glyphname = equal;
lastChange = "2012-07-28 23:50:15 +0000";
layers = (
{
layerId = "C6C3B4F4-9047-4AEA-9672-C83927A9B560";
name = Regular;
paths = (
{
closed = 1;
nodes = (
"53 508 LINE",
"53 596 LINE",
"596 596 LINE",
"596 508 LINE"
);
},
{
closed = 1;
nodes = (
"53 267 LINE",
"53 355 LINE",
"596 355 LINE",
"596 267 LINE"
);
}
);
width = 600;
}
);
unicode = 003D;
},
{
glyphname = greater;
lastChange = "2012-07-28 23:50:15 +0000";
layers = (
{
layerId = "C6C3B4F4-9047-4AEA-9672-C83927A9B560";
name = Regular;
paths = (
{
closed = 1;
nodes = (
"53 232 LINE",
"473 433 LINE",
"53 634 LINE",
"53 728 LINE",
"596 463 LINE",
"596 403 LINE",
"53 138 LINE"
);
}
);
width = 600;
}
);
unicode = 003E;
},
{
glyphname = greaterequal;
lastChange = "2012-07-28 23:50:15 +0000";
layers = (
{
layerId = "C6C3B4F4-9047-4AEA-9672-C83927A9B560";
name = Regular;
paths = (
{
closed = 1;
nodes = (
"53 186 LINE",
"473 388 LINE",
"53 589 LINE",
"53 683 LINE",
"596 418 LINE",
"596 358 LINE",
"53 92 LINE"
);
},
{
closed = 1;
nodes = (
"53 -38 LINE",
"53 50 LINE",
"596 50 LINE",
"596 -38 LINE"
);
}
);
width = 600;
}
);
unicode = 2265;
},
{
glyphname = infinity;
lastChange = "2012-07-28 23:50:15 +0000";
layers = (
{
layerId = "C6C3B4F4-9047-4AEA-9672-C83927A9B560";
name = Regular;
paths = (
{
closed = 1;
nodes = (
"276 288 OFFCURVE",
"223 246 OFFCURVE",
"162 246 CURVE SMOOTH",
"69 246 OFFCURVE",
"5 321 OFFCURVE",
"5 432 CURVE SMOOTH",
"5 537 OFFCURVE",
"69 617 OFFCURVE",
"162 617 CURVE SMOOTH",
"228 617 OFFCURVE",
"281 574 OFFCURVE",
"324 488 CURVE",
"369 572 OFFCURVE",
"424 613 OFFCURVE",
"489 613 CURVE SMOOTH",
"581 613 OFFCURVE",
"644 540 OFFCURVE",
"644 428 CURVE SMOOTH",
"644 325 OFFCURVE",
"578 242 OFFCURVE",
"489 242 CURVE SMOOTH",
"422 242 OFFCURVE",
"367 285 OFFCURVE",
"322 372 CURVE"
);
},
{
closed = 1;
nodes = (
"250 504 OFFCURVE",
"212 540 OFFCURVE",
"170 540 CURVE SMOOTH",
"118 540 OFFCURVE",
"84 492 OFFCURVE",
"84 430 CURVE SMOOTH",
"84 367 OFFCURVE",
"118 323 OFFCURVE",
"171 323 CURVE SMOOTH",
"211 323 OFFCURVE",
"248 359 OFFCURVE",
"282 432 CURVE"
);
},
{
closed = 1;
nodes = (
"400 356 OFFCURVE",
"438 319 OFFCURVE",
"480 319 CURVE SMOOTH",
"531 319 OFFCURVE",
"565 368 OFFCURVE",
"565 429 CURVE SMOOTH",
"565 491 OFFCURVE",
"528 536 OFFCURVE",
"478 536 CURVE SMOOTH",
"437 536 OFFCURVE",
"400 500 OFFCURVE",
"366 428 CURVE"
);
}
);
width = 600;
}
);
unicode = 221E;
},
{
glyphname = integral;
lastChange = "2012-07-28 23:50:15 +0000";
layers = (
{
layerId = "C6C3B4F4-9047-4AEA-9672-C83927A9B560";
name = Regular;
paths = (
{
closed = 1;
nodes = (
"548 747 LINE",
"526 757 OFFCURVE",
"504 763 OFFCURVE",
"481 763 CURVE SMOOTH",
"413 763 OFFCURVE",
"380 717 OFFCURVE",
"380 626 CURVE SMOOTH",
"380 -152 LINE SMOOTH",
"380 -288 OFFCURVE",
"306 -360 OFFCURVE",
"181 -360 CURVE SMOOTH",
"151 -360 OFFCURVE",
"125 -357 OFFCURVE",
"103 -349 CURVE",
"103 -263 LINE",
"126 -272 OFFCURVE",
"149 -277 OFFCURVE",
"171 -277 CURVE SMOOTH",
"242 -277 OFFCURVE",
"277 -231 OFFCURVE",
"277 -140 CURVE SMOOTH",
"277 636 LINE SMOOTH",
"277 775 OFFCURVE",
"342 844 OFFCURVE",
"471 844 CURVE SMOOTH",
"506 844 OFFCURVE",
"531 841 OFFCURVE",
"548 834 CURVE"
);
}
);
width = 600;
}
);
unicode = 222B;
},
{
glyphname = less;
lastChange = "2012-07-28 23:50:15 +0000";
layers = (
{
layerId = "C6C3B4F4-9047-4AEA-9672-C83927A9B560";
name = Regular;
paths = (
{
closed = 1;
nodes = (
"596 138 LINE",
"53 403 LINE",
"53 463 LINE",
"596 728 LINE",
"596 634 LINE",
"175 433 LINE",
"596 232 LINE"
);
}
);
width = 600;
}
);
unicode = 003C;
},
{
glyphname = lessequal;
lastChange = "2012-07-28 23:50:15 +0000";
layers = (
{
layerId = "C6C3B4F4-9047-4AEA-9672-C83927A9B560";
name = Regular;
paths = (
{
closed = 1;
nodes = (
"596 92 LINE",
"53 358 LINE",
"53 418 LINE",
"596 683 LINE",
"596 589 LINE",
"175 388 LINE",
"596 186 LINE"
);
},
{
closed = 1;
nodes = (
"53 -38 LINE",
"53 50 LINE",
"596 50 LINE",
"596 -38 LINE"
);
}
);
width = 600;
}
);
unicode = 2264;
},
{
glyphname = logicalnot;
lastChange = "2012-07-28 23:50:15 +0000";
layers = (
{
layerId = "C6C3B4F4-9047-4AEA-9672-C83927A9B560";
name = Regular;
paths = (
{
closed = 1;
nodes = (
"596 397 LINE",
"596 82 LINE",
"508 82 LINE",
"508 309 LINE",
"53 309 LINE",
"53 397 LINE"
);
}
);
width = 600;
}
);
unicode = 00AC;
},
{
glyphname = minus;
lastChange = "2012-07-28 23:50:15 +0000";
layers = (
{
layerId = "C6C3B4F4-9047-4AEA-9672-C83927A9B560";
name = Regular;
paths = (
{
closed = 1;
nodes = (
"53 388 LINE",
"53 476 LINE",
"596 476 LINE",
"596 388 LINE"
);
}
);
width = 600;
}
);
unicode = 2212;
},
{
glyphname = multiply;
lastChange = "2012-07-28 23:50:15 +0000";
layers = (
{
layerId = "C6C3B4F4-9047-4AEA-9672-C83927A9B560";
name = Regular;
paths = (
{
closed = 1;
nodes = (
"263 433 LINE",
"76 621 LINE",
"137 683 LINE",
"324 496 LINE",
"513 683 LINE",
"574 622 LINE",
"386 433 LINE",
"573 245 LINE",
"513 185 LINE",
"324 372 LINE",
"137 186 LINE",
"77 247 LINE"
);
}
);
width = 600;
}
);
unicode = 00D7;
},
{
glyphname = notequal;
lastChange = "2012-07-28 23:50:15 +0000";
layers = (
{
layerId = "C6C3B4F4-9047-4AEA-9672-C83927A9B560";
name = Regular;
paths = (
{
closed = 1;
nodes = (
"198 268 LINE",
"53 268 LINE",
"53 356 LINE",
"240 356 LINE",
"311 509 LINE",
"53 509 LINE",
"53 597 LINE",
"351 597 LINE",
"430 763 LINE",
"511 729 LINE",
"449 597 LINE",
"596 597 LINE",
"596 509 LINE",
"408 509 LINE",
"336 356 LINE",
"596 356 LINE",
"596 268 LINE",
"295 268 LINE",
"219 105 LINE",
"138 138 LINE"
);
}
);
width = 600;
}
);
unicode = 2260;
},
{
glyphname = partialdiff;
lastChange = "2012-07-28 23:50:15 +0000";
layers = (
{
layerId = "C6C3B4F4-9047-4AEA-9672-C83927A9B560";
name = Regular;
paths = (
{
closed = 1;
nodes = (
"508 541 LINE SMOOTH",
"515 682 OFFCURVE",
"465 789 OFFCURVE",
"345 789 CURVE SMOOTH",
"294 789 OFFCURVE",
"244 773 OFFCURVE",
"194 740 CURVE",
"194 842 LINE",
"246 866 OFFCURVE",
"302 879 OFFCURVE",
"360 879 CURVE SMOOTH",
"530 879 OFFCURVE",
"614 772 OFFCURVE",
"614 559 CURVE SMOOTH",
"614 254 OFFCURVE",
"472 -2 OFFCURVE",
"248 -2 CURVE SMOOTH",
"106 -2 OFFCURVE",
"35 76 OFFCURVE",
"35 231 CURVE SMOOTH",
"35 426 OFFCURVE",
"150 604 OFFCURVE",
"341 604 CURVE SMOOTH",
"413 604 OFFCURVE",
"468 575 OFFCURVE",
"507 517 CURVE"
);
},
{
closed = 1;
nodes = (
"471 476 OFFCURVE",
"415 522 OFFCURVE",
"355 522 CURVE SMOOTH",
"230 522 OFFCURVE",
"145 369 OFFCURVE",
"145 227 CURVE SMOOTH",
"145 135 OFFCURVE",
"182 88 OFFCURVE",
"255 88 CURVE SMOOTH",
"364 88 OFFCURVE",
"458 221 OFFCURVE",
"488 410 CURVE"
);
}
);
width = 600;
}
);
unicode = 2202;
},
{
glyphname = percent;
lastChange = "2012-07-28 23:50:15 +0000";
layers = (
{
layerId = "C6C3B4F4-9047-4AEA-9672-C83927A9B560";
name = Regular;
paths = (
{
closed = 1;
nodes = (
"32 472 OFFCURVE",
"-36 552 OFFCURVE",
"-36 677 CURVE SMOOTH",
"-36 806 OFFCURVE",
"30 881 OFFCURVE",
"138 881 CURVE SMOOTH",
"239 881 OFFCURVE",
"309 803 OFFCURVE",
"309 677 CURVE SMOOTH",
"309 550 OFFCURVE",
"243 472 OFFCURVE",
"135 472 CURVE SMOOTH"
);
},
{
closed = 1;
nodes = (
"191 542 OFFCURVE",
"218 587 OFFCURVE",
"218 677 CURVE SMOOTH",
"218 766 OFFCURVE",
"191 810 OFFCURVE",
"136 810 CURVE SMOOTH",
"81 810 OFFCURVE",
"53 766 OFFCURVE",
"53 677 CURVE SMOOTH",
"53 587 OFFCURVE",
"81 542 OFFCURVE",
"136 542 CURVE SMOOTH"
);
},
{
closed = 1;
nodes = (
"586 871 LINE",
"157 11 LINE",
"64 11 LINE",
"493 871 LINE"
);
},
{
closed = 1;
nodes = (
"412 0 OFFCURVE",
"342 80 OFFCURVE",
"342 205 CURVE SMOOTH",
"342 334 OFFCURVE",
"408 408 OFFCURVE",
"516 408 CURVE SMOOTH",
"617 408 OFFCURVE",
"687 330 OFFCURVE",
"687 205 CURVE SMOOTH",
"687 78 OFFCURVE",
"622 0 OFFCURVE",
"513 0 CURVE SMOOTH"
);
},
{
closed = 1;
nodes = (
"569 70 OFFCURVE",
"596 115 OFFCURVE",
"596 205 CURVE SMOOTH",
"596 293 OFFCURVE",
"569 337 OFFCURVE",
"515 337 CURVE SMOOTH",
"459 337 OFFCURVE",
"432 293 OFFCURVE",
"432 205 CURVE SMOOTH",
"432 115 OFFCURVE",
"459 70 OFFCURVE",
"515 70 CURVE SMOOTH"
);
}
);
width = 600;
}
);
unicode = 0025;
},
{
glyphname = perthousand;
lastChange = "2012-07-28 23:50:15 +0000";
layers = (
{
layerId = "C6C3B4F4-9047-4AEA-9672-C83927A9B560";
name = Regular;
paths = (
{
closed = 1;
nodes = (
"24 521 OFFCURVE",
"-28 588 OFFCURVE",
"-28 704 CURVE SMOOTH",
"-28 826 OFFCURVE",
"20 886 OFFCURVE",
"116 886 CURVE SMOOTH",
"205 886 OFFCURVE",
"257 821 OFFCURVE",
"257 704 CURVE SMOOTH",
"257 582 OFFCURVE",
"209 521 OFFCURVE",
"113 521 CURVE SMOOTH"
);
},
{
closed = 1;
nodes = (
"164 584 OFFCURVE",
"176 622 OFFCURVE",
"176 704 CURVE SMOOTH",
"176 749 OFFCURVE",
"172 780 OFFCURVE",
"163 797 CURVE",
"153 814 OFFCURVE",
"138 822 OFFCURVE",
"115 822 CURVE SMOOTH",
"68 822 OFFCURVE",
"52 791 OFFCURVE",
"52 704 CURVE SMOOTH",
"52 622 OFFCURVE",
"65 584 OFFCURVE",
"115 584 CURVE SMOOTH"
);
},
{
closed = 1;
nodes = (
"398 511 LINE",
"-13 343 LINE",
"-37 400 LINE",
"373 570 LINE"
);
},
{
closed = 1;
nodes = (
"126 15 OFFCURVE",
"75 82 OFFCURVE",
"75 198 CURVE SMOOTH",
"75 320 OFFCURVE",
"123 380 OFFCURVE",
"218 380 CURVE SMOOTH",
"307 380 OFFCURVE",
"359 315 OFFCURVE",
"359 198 CURVE SMOOTH",
"359 76 OFFCURVE",
"312 15 OFFCURVE",
"216 15 CURVE SMOOTH"
);
},
{
closed = 1;
nodes = (
"266 77 OFFCURVE",
"279 116 OFFCURVE",
"279 198 CURVE SMOOTH",
"279 243 OFFCURVE",
"274 274 OFFCURVE",
"265 291 CURVE",
"256 308 OFFCURVE",
"240 316 OFFCURVE",
"217 316 CURVE SMOOTH",
"171 316 OFFCURVE",
"155 286 OFFCURVE",
"155 198 CURVE SMOOTH",
"155 116 OFFCURVE",
"168 77 OFFCURVE",
"217 77 CURVE SMOOTH"
);
},
{
closed = 1;
nodes = (
"438 15 OFFCURVE",
"387 82 OFFCURVE",
"387 198 CURVE SMOOTH",
"387 320 OFFCURVE",
"435 380 OFFCURVE",
"531 380 CURVE SMOOTH",
"618 380 OFFCURVE",
"671 314 OFFCURVE",
"671 198 CURVE SMOOTH",
"671 76 OFFCURVE",
"623 15 OFFCURVE",
"528 15 CURVE SMOOTH"
);
},
{
closed = 1;
nodes = (
"579 77 OFFCURVE",
"591 116 OFFCURVE",
"591 198 CURVE SMOOTH",
"591 287 OFFCURVE",
"576 316 OFFCURVE",
"529 316 CURVE SMOOTH",
"482 316 OFFCURVE",
"466 287 OFFCURVE",
"466 198 CURVE SMOOTH",
"466 116 OFFCURVE",
"480 77 OFFCURVE",
"529 77 CURVE SMOOTH"
);
}
);
width = 600;
}
);
unicode = 2030;
},
{
glyphname = plus;
lastChange = "2012-07-28 23:50:15 +0000";
layers = (
{
layerId = "C6C3B4F4-9047-4AEA-9672-C83927A9B560";
name = Regular;
paths = (
{
closed = 1;
nodes = (
"281 389 LINE",
"53 389 LINE",
"53 477 LINE",
"281 477 LINE",
"281 706 LINE",
"368 706 LINE",
"368 477 LINE",
"596 477 LINE",
"596 389 LINE",
"368 389 LINE",
"368 162 LINE",
"281 162 LINE"
);
}
);
width = 600;
}
);
unicode = 002B;
},
{
glyphname = plusminus;
lastChange = "2012-07-28 23:50:15 +0000";
layers = (
{
layerId = "C6C3B4F4-9047-4AEA-9672-C83927A9B560";
name = Regular;
paths = (
{
closed = 1;
nodes = (
"281 335 LINE",
"53 335 LINE",
"53 423 LINE",
"281 423 LINE",
"281 652 LINE",
"368 652 LINE",
"368 423 LINE",
"596 423 LINE",
"596 335 LINE",
"368 335 LINE",
"368 108 LINE",
"281 108 LINE"
);
},
{
closed = 1;
nodes = (
"53 -46 LINE",
"53 42 LINE",
"596 42 LINE",
"596 -46 LINE"
);
}
);
width = 600;
}
);
unicode = 00B1;
},
{
glyphname = product;
lastChange = "2012-07-28 23:50:15 +0000";
layers = (
{
layerId = "C6C3B4F4-9047-4AEA-9672-C83927A9B560";
name = Regular;
paths = (
{
closed = 1;
nodes = (
"517 -380 LINE",
"517 672 LINE",
"173 672 LINE",
"173 -380 LINE",
"64 -380 LINE",
"64 770 LINE",
"626 770 LINE",
"626 -380 LINE"
);
}
);
width = 600;
}
);
unicode = 220F;
},
{
glyphname = radical;
lastChange = "2012-07-28 23:50:15 +0000";
layers = (
{
layerId = "C6C3B4F4-9047-4AEA-9672-C83927A9B560";
name = Regular;
paths = (
{
closed = 1;
nodes = (
"324 48 LINE",
"246 48 LINE",
"83 506 LINE",
"-22 506 LINE",
"-22 590 LINE",
"152 590 LINE",
"287 200 LINE",
"588 1054 LINE",
"673 1054 LINE"
);
}
);
width = 600;
}
);
unicode = 221A;
},
{
glyphname = summation;
lastChange = "2012-07-28 23:50:15 +0000";
layers = (
{
layerId = "C6C3B4F4-9047-4AEA-9672-C83927A9B560";
name = Regular;
paths = (
{
closed = 1;
nodes = (
"10 -380 LINE",
"10 -312 LINE",
"353 226 LINE",
"20 703 LINE",
"20 770 LINE",
"616 770 LINE",
"616 673 LINE",
"173 673 LINE",
"484 227 LINE",
"158 -283 LINE",
"655 -283 LINE",
"655 -380 LINE"
);
}
);
width = 600;
}
);
unicode = 2211;
},
{
glyphname = ampersand;
lastChange = "2012-07-28 23:50:15 +0000";
layers = (
{
layerId = "C6C3B4F4-9047-4AEA-9672-C83927A9B560";
name = Regular;
paths = (
{
closed = 1;
nodes = (
"496 263 LINE",
"523 311 OFFCURVE",
"544 363 OFFCURVE",
"557 420 CURVE",
"665 420 LINE",
"644 328 OFFCURVE",
"609 249 OFFCURVE",
"560 183 CURVE",
"698 12 LINE",
"570 12 LINE",
"493 109 LINE",
"425 36 OFFCURVE",
"344 0 OFFCURVE",
"251 0 CURVE SMOOTH",
"103 0 OFFCURVE",
"12 89 OFFCURVE",
"12 236 CURVE SMOOTH",
"12 339 OFFCURVE",
"53 408 OFFCURVE",
"188 488 CURVE",
"124 563 OFFCURVE",
"92 633 OFFCURVE",
"92 697 CURVE SMOOTH",
"92 813 OFFCURVE",
"169 885 OFFCURVE",
"310 885 CURVE SMOOTH",
"441 885 OFFCURVE",
"517 814 OFFCURVE",
"517 697 CURVE SMOOTH",
"517 618 OFFCURVE",
"455 541 OFFCURVE",
"330 468 CURVE"
);
},
{
closed = 1;
nodes = (
"380 601 OFFCURVE",
"412 641 OFFCURVE",
"412 699 CURVE SMOOTH",
"412 758 OFFCURVE",
"370 797 OFFCURVE",
"306 797 CURVE SMOOTH",
"238 797 OFFCURVE",
"197 760 OFFCURVE",
"197 697 CURVE SMOOTH",
"197 650 OFFCURVE",
"223 598 OFFCURVE",
"275 539 CURVE"
);
},
{
closed = 1;
nodes = (
"244 416 LINE",
"164 368 OFFCURVE",
"124 309 OFFCURVE",
"124 239 CURVE SMOOTH",
"124 157 OFFCURVE",
"185 95 OFFCURVE",
"258 95 CURVE SMOOTH",
"321 95 OFFCURVE",
"379 123 OFFCURVE",
"434 180 CURVE"
);
}
);
width = 600;
}
);
unicode = 0026;
},
{
glyphname = at;
lastChange = "2012-07-28 23:50:15 +0000";
layers = (
{
layerId = "C6C3B4F4-9047-4AEA-9672-C83927A9B560";
name = Regular;
paths = (
{
closed = 1;
nodes = (
"432 209 LINE",
"403 139 OFFCURVE",
"358 104 OFFCURVE",
"296 104 CURVE SMOOTH",
"202 104 OFFCURVE",
"143 192 OFFCURVE",
"143 330 CURVE SMOOTH",
"143 492 OFFCURVE",
"226 600 OFFCURVE",
"351 600 CURVE SMOOTH",
"404 600 OFFCURVE",
"455 591 OFFCURVE",
"501 572 CURVE",
"488 328 LINE SMOOTH",
"488 313 OFFCURVE",
"487 299 OFFCURVE",
"487 287 CURVE SMOOTH",
"487 283 LINE SMOOTH",
"487 214 OFFCURVE",
"501 179 OFFCURVE",
"529 179 CURVE SMOOTH",
"569 179 OFFCURVE",
"588 255 OFFCURVE",
"588 405 CURVE SMOOTH",
"588 623 OFFCURVE",
"495 754 OFFCURVE",
"347 754 CURVE SMOOTH",
"170 754 OFFCURVE",
"65 594 OFFCURVE",
"65 331 CURVE SMOOTH",
"65 86 OFFCURVE",
"171 -53 OFFCURVE",
"358 -53 CURVE SMOOTH",
"429 -53 OFFCURVE",
"497 -38 OFFCURVE",
"562 -7 CURVE",
"562 -85 LINE",
"500 -118 OFFCURVE",
"431 -134 OFFCURVE",
"355 -134 CURVE SMOOTH",
"121 -134 OFFCURVE",
"-18 38 OFFCURVE",
"-18 328 CURVE SMOOTH",
"-18 639 OFFCURVE",
"122 834 OFFCURVE",
"348 834 CURVE SMOOTH",
"543 834 OFFCURVE",
"669 669 OFFCURVE",
"669 404 CURVE SMOOTH",
"669 222 OFFCURVE",
"616 104 OFFCURVE",
"526 104 CURVE SMOOTH",
"476 104 OFFCURVE",
"445 139 OFFCURVE",
"434 209 CURVE"
);
},
{
closed = 1;
nodes = (
"406 512 LINE",
"385 520 OFFCURVE",
"365 524 OFFCURVE",
"346 524 CURVE SMOOTH",
"276 524 OFFCURVE",
"238 443 OFFCURVE",
"238 328 CURVE SMOOTH",
"238 229 OFFCURVE",
"262 179 OFFCURVE",
"312 179 CURVE SMOOTH",
"363 179 OFFCURVE",
"392 241 OFFCURVE",
"398 363 CURVE SMOOTH"
);
}
);
width = 600;
}
);
unicode = 0040;
},
{
glyphname = bar;
lastChange = "2012-07-28 23:50:15 +0000";
layers = (
{
layerId = "C6C3B4F4-9047-4AEA-9672-C83927A9B560";
name = Regular;
paths = (
{
closed = 1;
nodes = (
"281 844 LINE",
"368 844 LINE",
"368 -360 LINE",
"281 -360 LINE"
);
}
);
width = 600;
}
);
unicode = 007C;
},
{
glyphname = brokenbar;
lastChange = "2012-07-28 23:50:15 +0000";
layers = (
{
layerId = "C6C3B4F4-9047-4AEA-9672-C83927A9B560";
name = Regular;
paths = (
{
closed = 1;
nodes = (
"281 844 LINE",
"368 844 LINE",
"368 386 LINE",
"281 386 LINE"
);
},
{
closed = 1;
nodes = (
"281 99 LINE",
"368 99 LINE",
"368 -360 LINE",
"281 -360 LINE"
);
}
);
width = 600;
}
);
unicode = 00A6;
},
{
glyphname = copyright;
lastChange = "2012-07-28 23:50:15 +0000";
layers = (
{
layerId = "C6C3B4F4-9047-4AEA-9672-C83927A9B560";
name = Regular;
paths = (
{
closed = 1;
nodes = (
"549 884 OFFCURVE",
"683 711 OFFCURVE",
"683 441 CURVE SMOOTH",
"683 171 OFFCURVE",
"549 -1 OFFCURVE",
"325 -1 CURVE SMOOTH",
"101 -1 OFFCURVE",
"-32 171 OFFCURVE",
"-32 441 CURVE SMOOTH",
"-32 710 OFFCURVE",
"100 884 OFFCURVE",
"325 884 CURVE SMOOTH"
);
},
{
closed = 1;
nodes = (
"513 63 OFFCURVE",
"619 204 OFFCURVE",
"619 441 CURVE SMOOTH",
"619 678 OFFCURVE",
"513 819 OFFCURVE",
"325 819 CURVE SMOOTH",
"137 819 OFFCURVE",
"32 677 OFFCURVE",
"32 441 CURVE SMOOTH",
"32 205 OFFCURVE",
"137 63 OFFCURVE",
"325 63 CURVE SMOOTH"
);
},
{
closed = 1;
nodes = (
"478 201 LINE",
"436 181 OFFCURVE",
"393 171 OFFCURVE",
"348 171 CURVE SMOOTH",
"195 171 OFFCURVE",
"110 275 OFFCURVE",
"110 442 CURVE SMOOTH",
"110 607 OFFCURVE",
"202 710 OFFCURVE",
"352 710 CURVE SMOOTH",
"402 710 OFFCURVE",
"452 698 OFFCURVE",
"501 674 CURVE",
"465 599 LINE",
"422 620 OFFCURVE",
"384 631 OFFCURVE",
"352 631 CURVE SMOOTH",
"257 631 OFFCURVE",
"204 559 OFFCURVE",
"204 441 CURVE SMOOTH",
"204 315 OFFCURVE",
"253 251 OFFCURVE",
"352 251 CURVE SMOOTH",
"389 251 OFFCURVE",
"431 260 OFFCURVE",
"478 278 CURVE"
);
}
);
width = 600;
}
);
unicode = 00A9;
},
{
glyphname = dagger;
lastChange = "2012-07-28 23:50:15 +0000";
layers = (
{
layerId = "C6C3B4F4-9047-4AEA-9672-C83927A9B560";
name = Regular;
paths = (
{
closed = 1;
nodes = (
"546 612 LINE",
"351 630 LINE",
"383 30 LINE",
"256 30 LINE",
"288 630 LINE",
"105 612 LINE",
"105 718 LINE",
"288 700 LINE",
"256 946 LINE",
"383 946 LINE",
"351 700 LINE",
"546 718 LINE"
);
}
);
width = 600;
}
);
unicode = 2020;
},
{
glyphname = daggerdbl;
lastChange = "2012-07-28 23:50:15 +0000";
layers = (
{
layerId = "C6C3B4F4-9047-4AEA-9672-C83927A9B560";
name = Regular;
paths = (
{
closed = 1;
nodes = (
"357 322 LINE",
"551 340 LINE",
"551 234 LINE",
"357 252 LINE",
"389 30 LINE",
"261 30 LINE",
"294 252 LINE",
"99 234 LINE",
"99 340 LINE",
"294 322 LINE",
"266 493 LINE",
"294 654 LINE",
"99 636 LINE",
"99 742 LINE",
"294 724 LINE",
"261 946 LINE",
"389 946 LINE",
"357 724 LINE",
"551 742 LINE",
"551 636 LINE",
"357 654 LINE",
"384 493 LINE"
);
}
);
width = 600;
}
);
unicode = 2021;
},
{
glyphname = degree;
lastChange = "2012-07-28 23:50:15 +0000";
layers = (
{
layerId = "C6C3B4F4-9047-4AEA-9672-C83927A9B560";
name = Regular;
paths = (
{
closed = 1;
nodes = (
"426 1064 OFFCURVE",
"511 979 OFFCURVE",
"511 878 CURVE SMOOTH",
"511 776 OFFCURVE",
"427 694 OFFCURVE",
"325 694 CURVE SMOOTH",
"222 694 OFFCURVE",
"140 777 OFFCURVE",
"140 878 CURVE SMOOTH",
"140 979 OFFCURVE",
"223 1064 OFFCURVE",
"325 1064 CURVE SMOOTH"
);
},
{
closed = 1;
nodes = (
"387 766 OFFCURVE",
"439 816 OFFCURVE",
"439 878 CURVE SMOOTH",
"439 941 OFFCURVE",
"386 992 OFFCURVE",
"325 992 CURVE SMOOTH",
"263 992 OFFCURVE",
"212 941 OFFCURVE",
"212 878 CURVE SMOOTH",
"212 816 OFFCURVE",
"262 766 OFFCURVE",
"325 766 CURVE SMOOTH"
);
}
);
width = 600;
}
);
unicode = 00B0;
},
{
glyphname = estimated;
lastChange = "2012-07-28 23:50:15 +0000";
layers = (
{
layerId = "C6C3B4F4-9047-4AEA-9672-C83927A9B560";
name = Regular;
paths = (
{
closed = 1;
nodes = (
"636 240 LINE",
"149 240 LINE",
"149 31 LINE",
"197 -17 OFFCURVE",
"255 -42 OFFCURVE",
"323 -42 CURVE SMOOTH",
"423 -42 OFFCURVE",
"500 4 OFFCURVE",
"556 96 CURVE",
"598 72 LINE",
"522 -50 OFFCURVE",
"441 -92 OFFCURVE",
"323 -92 CURVE SMOOTH",
"135 -92 OFFCURVE",
"11 51 OFFCURVE",
"11 240 CURVE SMOOTH",
"11 445 OFFCURVE",
"149 573 OFFCURVE",
"323 573 CURVE SMOOTH",
"504 573 OFFCURVE",
"636 440 OFFCURVE",
"636 243 CURVE SMOOTH"
);
},
{
closed = 1;
nodes = (
"499 291 LINE",
"499 454 LINE",
"451 500 OFFCURVE",
"393 524 OFFCURVE",
"322 524 CURVE SMOOTH",
"255 524 OFFCURVE",
"197 501 OFFCURVE",
"149 455 CURVE",
"149 291 LINE"
);
}
);
width = 600;
}
);
unicode = 212E;
},
{
glyphname = lozenge;
lastChange = "2012-07-28 23:50:15 +0000";
layers = (
{
layerId = "C6C3B4F4-9047-4AEA-9672-C83927A9B560";
name = Regular;
paths = (
{
closed = 1;
nodes = (
"613 447 LINE",
"347 14 LINE",
"302 14 LINE",
"38 446 LINE",
"302 881 LINE",
"347 881 LINE"
);
},
{
closed = 1;
nodes = (
"505 447 LINE",
"325 748 LINE",
"146 447 LINE",
"325 145 LINE"
);
}
);
width = 600;
}
);
unicode = 25CA;
},
{
glyphname = minute;
lastChange = "2012-07-28 23:50:15 +0000";
layers = (
{
layerId = "C6C3B4F4-9047-4AEA-9672-C83927A9B560";
name = Regular;
paths = (
{
closed = 1;
nodes = (
"395 1063 LINE",
"371 753 LINE",
"280 753 LINE",
"256 1063 LINE"
);
}
);
width = 600;
}
);
unicode = 2032;
},
{
glyphname = paragraph;
lastChange = "2012-07-28 23:50:15 +0000";
layers = (
{
layerId = "C6C3B4F4-9047-4AEA-9672-C83927A9B560";
name = Regular;
paths = (
{
closed = 1;
nodes = (
"581 -176 LINE",
"510 -176 LINE",
"510 799 LINE",
"389 799 LINE",
"389 -176 LINE",
"318 -176 LINE",
"318 306 LINE",
"294 299 OFFCURVE",
"266 295 OFFCURVE",
"232 295 CURVE SMOOTH",
"68 295 OFFCURVE",
"-14 393 OFFCURVE",
"-14 590 CURVE SMOOTH",
"-14 793 OFFCURVE",
"67 892 OFFCURVE",
"250 892 CURVE SMOOTH",
"581 892 LINE"
);
}
);
width = 600;
}
);
unicode = 00B6;
},
{
glyphname = registered;
lastChange = "2012-07-28 23:50:15 +0000";
layers = (
{
layerId = "C6C3B4F4-9047-4AEA-9672-C83927A9B560";
name = Regular;
paths = (
{
closed = 1;
nodes = (
"549 884 OFFCURVE",
"683 711 OFFCURVE",
"683 441 CURVE SMOOTH",
"683 171 OFFCURVE",
"549 -1 OFFCURVE",
"325 -1 CURVE SMOOTH",
"101 -1 OFFCURVE",
"-32 171 OFFCURVE",
"-32 441 CURVE SMOOTH",
"-32 710 OFFCURVE",
"100 884 OFFCURVE",
"325 884 CURVE SMOOTH"
);
},
{
closed = 1;
nodes = (
"513 63 OFFCURVE",
"619 204 OFFCURVE",
"619 441 CURVE SMOOTH",
"619 678 OFFCURVE",
"513 819 OFFCURVE",
"325 819 CURVE SMOOTH",
"137 819 OFFCURVE",
"32 677 OFFCURVE",
"32 441 CURVE SMOOTH",
"32 205 OFFCURVE",
"137 63 OFFCURVE",
"325 63 CURVE SMOOTH"
);
},
{
closed = 1;
nodes = (
"543 179 LINE",
"439 179 LINE",
"317 386 LINE",
"262 386 LINE",
"262 179 LINE",
"169 179 LINE",
"169 704 LINE",
"306 704 LINE SMOOTH",
"434 704 OFFCURVE",
"498 652 OFFCURVE",
"498 548 CURVE SMOOTH",
"498 484 OFFCURVE",
"466 439 OFFCURVE",
"404 411 CURVE"
);
},
{
closed = 1;
nodes = (
"262 463 LINE",
"304 463 LINE SMOOTH",
"371 463 OFFCURVE",
"404 491 OFFCURVE",
"404 546 CURVE SMOOTH",
"404 604 OFFCURVE",
"372 624 OFFCURVE",
"302 624 CURVE SMOOTH",
"262 624 LINE"
);
}
);
width = 600;
}
);
unicode = 00AE;
},
{
glyphname = second;
lastChange = "2012-07-28 23:50:15 +0000";
layers = (
{
layerId = "C6C3B4F4-9047-4AEA-9672-C83927A9B560";
name = Regular;
paths = (
{
closed = 1;
nodes = (
"271 1063 LINE",
"247 753 LINE",
"156 753 LINE",
"132 1063 LINE"
);
},
{
closed = 1;
nodes = (
"519 1063 LINE",
"495 753 LINE",
"404 753 LINE",
"380 1063 LINE"
);
}
);
width = 600;
}
);
unicode = 2033;
},
{
glyphname = section;
lastChange = "2012-07-28 23:50:15 +0000";
layers = (
{
layerId = "C6C3B4F4-9047-4AEA-9672-C83927A9B560";
name = Regular;
paths = (
{
closed = 1;
nodes = (
"148 689 OFFCURVE",
"117 736 OFFCURVE",
"117 797 CURVE SMOOTH",
"117 891 OFFCURVE",
"205 952 OFFCURVE",
"341 952 CURVE SMOOTH",
"405 952 OFFCURVE",
"469 938 OFFCURVE",
"533 910 CURVE",
"500 828 LINE",
"439 855 OFFCURVE",
"385 868 OFFCURVE",
"338 868 CURVE SMOOTH",
"259 868 OFFCURVE",
"219 845 OFFCURVE",
"219 799 CURVE SMOOTH",
"219 778 OFFCURVE",
"229 760 OFFCURVE",
"249 745 CURVE SMOOTH",
"268 729 OFFCURVE",
"306 710 OFFCURVE",
"364 686 CURVE SMOOTH",
"487 637 OFFCURVE",
"543 581 OFFCURVE",
"543 492 CURVE SMOOTH",
"543 421 OFFCURVE",
"515 368 OFFCURVE",
"458 333 CURVE",
"515 302 OFFCURVE",
"543 258 OFFCURVE",
"543 201 CURVE SMOOTH",
"543 92 OFFCURVE",
"452 25 OFFCURVE",
"298 25 CURVE SMOOTH",
"218 25 OFFCURVE",
"154 38 OFFCURVE",
"108 63 CURVE",
"108 156 LINE",
"175 124 OFFCURVE",
"238 108 OFFCURVE",
"298 108 CURVE SMOOTH",
"392 108 OFFCURVE",
"439 135 OFFCURVE",
"439 191 CURVE SMOOTH",
"439 213 OFFCURVE",
"431 232 OFFCURVE",
"413 248 CURVE SMOOTH",
"396 264 OFFCURVE",
"358 284 OFFCURVE",
"299 308 CURVE SMOOTH",
"144 374 OFFCURVE",
"117 425 OFFCURVE",
"117 506 CURVE SMOOTH",
"117 576 OFFCURVE",
"148 627 OFFCURVE",
"211 658 CURVE"
);
},
{
closed = 1;
nodes = (
"383 368 LINE",
"428 398 OFFCURVE",
"451 434 OFFCURVE",
"451 476 CURVE SMOOTH",
"451 546 OFFCURVE",
"390 585 OFFCURVE",
"286 622 CURVE",
"233 604 OFFCURVE",
"208 569 OFFCURVE",
"208 519 CURVE SMOOTH",
"208 462 OFFCURVE",
"245 426 OFFCURVE",
"363 376 CURVE SMOOTH"
);
}
);
width = 600;
}
);
unicode = 00A7;
},
{
glyphname = trademark;
lastChange = "2012-07-28 23:50:15 +0000";
layers = (
{
layerId = "C6C3B4F4-9047-4AEA-9672-C83927A9B560";
name = Regular;
paths = (
{
closed = 1;
nodes = (
"132 599 LINE",
"57 599 LINE",
"57 960 LINE",
"-46 960 LINE",
"-46 1024 LINE",
"237 1024 LINE",
"237 960 LINE",
"132 960 LINE"
);
},
{
closed = 1;
nodes = (
"423 599 LINE",
"337 922 LINE",
"330 922 LINE",
"336 817 LINE",
"336 599 LINE",
"263 599 LINE",
"263 1024 LINE",
"373 1024 LINE",
"455 709 LINE",
"543 1024 LINE",
"648 1024 LINE",
"648 599 LINE",
"573 599 LINE",
"573 801 LINE SMOOTH",
"573 835 OFFCURVE",
"575 875 OFFCURVE",
"579 922 CURVE",
"572 922 LINE",
"482 599 LINE"
);
}
);
width = 600;
}
);
unicode = 2122;
},
{
glyphname = asciicircum;
lastChange = "2012-07-28 23:50:15 +0000";
layers = (
{
layerId = "C6C3B4F4-9047-4AEA-9672-C83927A9B560";
name = Regular;
paths = (
{
closed = 1;
nodes = (
"29 449 LINE",
"279 993 LINE",
"339 993 LINE",
"622 449 LINE",
"526 449 LINE",
"310 882 LINE",
"123 449 LINE"
);
}
);
width = 600;
}
);
unicode = 005E;
},
{
glyphname = Euro;
lastChange = "2012-07-28 23:50:15 +0000";
layers = (
{
layerId = "C6C3B4F4-9047-4AEA-9672-C83927A9B560";
name = Regular;
paths = (
{
closed = 1;
nodes = (
"478 561 LINE",
"478 480 LINE",
"215 480 LINE",
"215 474 OFFCURVE",
"215 468 OFFCURVE",
"215 463 CURVE",
"214 448 LINE",
"214 412 LINE SMOOTH",
"214 404 OFFCURVE",
"215 396 OFFCURVE",
"215 387 CURVE",
"442 387 LINE",
"442 307 LINE",
"226 307 LINE",
"255 166 OFFCURVE",
"327 95 OFFCURVE",
"443 95 CURVE SMOOTH",
"496 95 OFFCURVE",
"549 107 OFFCURVE",
"600 129 CURVE",
"600 34 LINE",
"553 11 OFFCURVE",
"498 -1 OFFCURVE",
"435 -1 CURVE SMOOTH",
"259 -1 OFFCURVE",
"153 102 OFFCURVE",
"116 307 CURVE",
"20 307 LINE",
"20 387 LINE",
"107 387 LINE",
"106 409 LINE",
"107 480 LINE",
"20 480 LINE",
"20 561 LINE",
"114 561 LINE",
"145 766 OFFCURVE",
"259 884 OFFCURVE",
"431 884 CURVE SMOOTH",
"506 884 OFFCURVE",
"572 865 OFFCURVE",
"628 829 CURVE",
"582 744 LINE",
"534 772 OFFCURVE",
"486 787 OFFCURVE",
"439 787 CURVE SMOOTH",
"333 787 OFFCURVE",
"252 706 OFFCURVE",
"223 561 CURVE"
);
}
);
width = 600;
}
);
},
{
glyphname = uni20AB;
lastChange = "2012-07-28 23:50:15 +0000";
layers = (
{
layerId = "C6C3B4F4-9047-4AEA-9672-C83927A9B560";
name = Regular;
paths = (
{
closed = 1;
nodes = (
"622 -227 LINE",
"109 -227 LINE",
"109 -145 LINE",
"622 -145 LINE"
);
},
{
closed = 1;
nodes = (
"519 50 LINE",
"515 50 LINE",
"497 24 OFFCURVE",
"473 -1 OFFCURVE",
"442 -19 CURVE SMOOTH",
"412 -38 OFFCURVE",
"374 -48 OFFCURVE",
"325 -48 CURVE SMOOTH",
"249 -48 OFFCURVE",
"187 -20 OFFCURVE",
"142 34 CURVE SMOOTH",
"98 88 OFFCURVE",
"72 168 OFFCURVE",
"72 273 CURVE SMOOTH",
"72 379 OFFCURVE",
"98 460 OFFCURVE",
"142 515 CURVE SMOOTH",
"187 569 OFFCURVE",
"249 597 OFFCURVE",
"325 597 CURVE SMOOTH",
"373 597 OFFCURVE",
"411 587 OFFCURVE",
"442 570 CURVE SMOOTH",
"473 552 OFFCURVE",
"497 529 OFFCURVE",
"515 504 CURVE",
"522 504 LINE",
"519 530 OFFCURVE",
"518 551 OFFCURVE",
"516 573 CURVE SMOOTH",
"515 584 OFFCURVE",
"515 592 OFFCURVE",
"515 598 CURVE SMOOTH",
"515 691 LINE",
"292 691 LINE",
"292 772 LINE",
"515 772 LINE",
"515 879 LINE",
"622 879 LINE",
"622 772 LINE",
"714 772 LINE",
"714 691 LINE",
"622 691 LINE",
"622 -36 LINE",
"535 -36 LINE"
);
},
{
closed = 1;
nodes = (
"407 41 OFFCURVE",
"449 58 OFFCURVE",
"475 93 CURVE SMOOTH",
"501 128 OFFCURVE",
"513 180 OFFCURVE",
"515 250 CURVE SMOOTH",
"515 273 LINE SMOOTH",
"515 349 OFFCURVE",
"505 408 OFFCURVE",
"478 448 CURVE SMOOTH",
"452 488 OFFCURVE",
"409 508 OFFCURVE",
"344 508 CURVE SMOOTH",
"234 508 OFFCURVE",
"184 425 OFFCURVE",
"184 272 CURVE SMOOTH",
"184 117 OFFCURVE",
"234 41 OFFCURVE",
"345 41 CURVE SMOOTH"
);
}
);
width = 600;
}
);
},
{
glyphname = afii61248;
lastChange = "2012-07-28 23:50:15 +0000";
layers = (
{
layerId = "C6C3B4F4-9047-4AEA-9672-C83927A9B560";
name = Regular;
paths = (
{
closed = 1;
nodes = (
"259 793 LINE",
"226 806 OFFCURVE",
"197 813 OFFCURVE",
"170 813 CURVE SMOOTH",
"93 813 OFFCURVE",
"54 767 OFFCURVE",
"54 675 CURVE SMOOTH",
"54 585 OFFCURVE",
"92 540 OFFCURVE",
"168 540 CURVE SMOOTH",
"209 540 OFFCURVE",
"243 547 OFFCURVE",
"272 560 CURVE",
"272 497 LINE",
"243 482 OFFCURVE",
"207 475 OFFCURVE",
"164 475 CURVE SMOOTH",
"42 475 OFFCURVE",
"-31 546 OFFCURVE",
"-31 674 CURVE SMOOTH",
"-31 808 OFFCURVE",
"43 878 OFFCURVE",
"170 878 CURVE SMOOTH",
"209 878 OFFCURVE",
"245 871 OFFCURVE",
"277 856 CURVE"
);
},
{
closed = 1;
nodes = (
"577 872 LINE",
"149 12 LINE",
"56 12 LINE",
"485 872 LINE"
);
},
{
closed = 1;
nodes = (
"401 7 OFFCURVE",
"327 85 OFFCURVE",
"327 208 CURVE SMOOTH",
"327 335 OFFCURVE",
"397 409 OFFCURVE",
"507 409 CURVE SMOOTH",
"610 409 OFFCURVE",
"684 330 OFFCURVE",
"684 208 CURVE SMOOTH",
"684 84 OFFCURVE",
"615 7 OFFCURVE",
"504 7 CURVE SMOOTH"
);
},
{
closed = 1;
nodes = (
"566 70 OFFCURVE",
"597 116 OFFCURVE",
"597 208 CURVE SMOOTH",
"597 299 OFFCURVE",
"566 344 OFFCURVE",
"506 344 CURVE SMOOTH",
"444 344 OFFCURVE",
"413 299 OFFCURVE",
"413 208 CURVE SMOOTH",
"413 116 OFFCURVE",
"444 70 OFFCURVE",
"506 70 CURVE SMOOTH"
);
}
);
width = 600;
}
);
},
{
glyphname = afii61289;
lastChange = "2012-07-28 23:50:15 +0000";
layers = (
{
layerId = "C6C3B4F4-9047-4AEA-9672-C83927A9B560";
name = Regular;
paths = (
{
closed = 1;
nodes = (
"551 207 LINE",
"544 68 OFFCURVE",
"488 -1 OFFCURVE",
"383 -1 CURVE SMOOTH",
"274 -1 OFFCURVE",
"210 73 OFFCURVE",
"210 209 CURVE SMOOTH",
"210 345 LINE",
"177 332 OFFCURVE",
"139 321 OFFCURVE",
"97 311 CURVE",
"97 382 LINE",
"125 390 OFFCURVE",
"163 401 OFFCURVE",
"210 417 CURVE",
"210 708 LINE SMOOTH",
"210 818 OFFCURVE",
"265 884 OFFCURVE",
"369 884 CURVE SMOOTH",
"456 884 OFFCURVE",
"508 813 OFFCURVE",
"508 706 CURVE SMOOTH",
"508 567 OFFCURVE",
"442 461 OFFCURVE",
"308 388 CURVE",
"308 211 LINE SMOOTH",
"308 125 OFFCURVE",
"336 81 OFFCURVE",
"393 81 CURVE SMOOTH",
"450 81 OFFCURVE",
"480 123 OFFCURVE",
"484 207 CURVE"
);
},
{
closed = 1;
nodes = (
"308 464 LINE",
"389 512 OFFCURVE",
"430 591 OFFCURVE",
"430 703 CURVE SMOOTH",
"430 777 OFFCURVE",
"410 814 OFFCURVE",
"369 814 CURVE SMOOTH",
"328 814 OFFCURVE",
"308 787 OFFCURVE",
"308 703 CURVE SMOOTH"
);
}
);
width = 600;
}
);
},
{
glyphname = afii61352;
lastChange = "2012-07-28 23:50:15 +0000";
layers = (
{
layerId = "C6C3B4F4-9047-4AEA-9672-C83927A9B560";
name = Regular;
paths = (
{
closed = 1;
nodes = (
"347 11 LINE",
"244 11 LINE",
"53 699 LINE",
"48 699 LINE",
"55 599 OFFCURVE",
"59 517 OFFCURVE",
"59 453 CURVE SMOOTH",
"59 11 LINE",
"-20 11 LINE",
"-20 871 LINE",
"83 871 LINE",
"273 187 LINE",
"277 187 LINE",
"271 306 OFFCURVE",
"268 385 OFFCURVE",
"268 424 CURVE SMOOTH",
"268 871 LINE",
"347 871 LINE"
);
},
{
closed = 1;
nodes = (
"437 172 OFFCURVE",
"380 250 OFFCURVE",
"380 377 CURVE SMOOTH",
"380 513 OFFCURVE",
"429 581 OFFCURVE",
"528 581 CURVE SMOOTH",
"618 581 OFFCURVE",
"675 505 OFFCURVE",
"675 377 CURVE SMOOTH",
"675 246 OFFCURVE",
"622 172 OFFCURVE",
"526 172 CURVE SMOOTH"
);
},
{
closed = 1;
nodes = (
"577 243 OFFCURVE",
"593 289 OFFCURVE",
"593 377 CURVE SMOOTH",
"593 467 OFFCURVE",
"577 509 OFFCURVE",
"527 509 CURVE SMOOTH",
"477 509 OFFCURVE",
"461 466 OFFCURVE",
"461 377 CURVE SMOOTH",
"461 290 OFFCURVE",
"477 243 OFFCURVE",
"527 243 CURVE SMOOTH"
);
},
{
closed = 1;
nodes = (
"403 11 LINE",
"403 97 LINE",
"647 97 LINE",
"647 11 LINE"
);
}
);
width = 600;
}
);
},
{
glyphname = uni02F3;
lastChange = "2012-07-29 00:38:39 +0000";
layers = (
{
layerId = "C6C3B4F4-9047-4AEA-9672-C83927A9B560";
name = Regular;
paths = (
{
closed = 1;
nodes = (
"458 -70 OFFCURVE",
"443 -102 OFFCURVE",
"419 -124 CURVE SMOOTH",
"395 -146 OFFCURVE",
"361 -157 OFFCURVE",
"322 -157 CURVE SMOOTH",
"283 -157 OFFCURVE",
"251 -146 OFFCURVE",
"228 -124 CURVE SMOOTH",
"204 -102 OFFCURVE",
"191 -71 OFFCURVE",
"191 -31 CURVE SMOOTH",
"191 9 OFFCURVE",
"204 40 OFFCURVE",
"228 62 CURVE SMOOTH",
"251 84 OFFCURVE",
"283 95 OFFCURVE",
"322 95 CURVE SMOOTH",
"360 95 OFFCURVE",
"394 84 OFFCURVE",
"418 63 CURVE SMOOTH",
"442 41 OFFCURVE",
"458 10 OFFCURVE",
"458 -30 CURVE SMOOTH"
);
},
{
closed = 1;
nodes = (
"389 11 OFFCURVE",
"362 35 OFFCURVE",
"322 35 CURVE SMOOTH",
"284 35 OFFCURVE",
"257 11 OFFCURVE",
"257 -31 CURVE SMOOTH",
"257 -73 OFFCURVE",
"280 -97 OFFCURVE",
"322 -97 CURVE SMOOTH",
"362 -97 OFFCURVE",
"389 -73 OFFCURVE",
"389 -31 CURVE SMOOTH"
);
}
);
width = 600;
}
);
},
{
glyphname = commaaccent;
lastChange = "2012-07-29 01:59:48 +0000";
layers = (
{
anchors = (
{
name = _bottom;
position = "{117, 0}";
}
);
layerId = "C6C3B4F4-9047-4AEA-9672-C83927A9B560";
name = Regular;
paths = (
{
closed = 1;
nodes = (
"53 -129 LINE",
"73 -84 OFFCURVE",
"87 -34 OFFCURVE",
"94 17 CURVE",
"181 17 LINE",
"181 8 LINE SMOOTH",
"181 -6 OFFCURVE",
"145 -88 OFFCURVE",
"102 -141 CURVE",
"53 -141 LINE"
);
}
);
width = 600;
}
);
unicode = 0326;
},
{
glyphname = uni0300;
lastChange = "2012-07-29 01:59:48 +0000";
layers = (
{
anchors = (
{
name = _top;
position = "{325.5, 500}";
}
);
layerId = "C6C3B4F4-9047-4AEA-9672-C83927A9B560";
name = Regular;
paths = (
{
closed = 1;
nodes = (
"488 787 LINE",
"388 787 LINE",
"296 865 OFFCURVE",
"221 949 OFFCURVE",
"163 1040 CURVE",
"163 1057 LINE",
"344 1057 LINE",
"391 959 OFFCURVE",
"440 877 OFFCURVE",
"488 808 CURVE"
);
}
);
width = 600;
}
);
},
{
glyphname = uni0301;
lastChange = "2012-07-29 01:59:48 +0000";
layers = (
{
anchors = (
{
name = _top;
position = "{325.5, 500}";
}
);
layerId = "C6C3B4F4-9047-4AEA-9672-C83927A9B560";
name = Regular;
paths = (
{
closed = 1;
nodes = (
"163 808 LINE",
"215 882 OFFCURVE",
"263 965 OFFCURVE",
"307 1057 CURVE",
"488 1057 LINE",
"488 1040 LINE",
"426 945 OFFCURVE",
"351 860 OFFCURVE",
"263 787 CURVE",
"163 787 LINE"
);
}
);
width = 600;
}
);
},
{
glyphname = uni0303;
lastChange = "2012-07-29 01:59:48 +0000";
layers = (
{
anchors = (
{
name = _top;
position = "{324.5, 500}";
}
);
layerId = "C6C3B4F4-9047-4AEA-9672-C83927A9B560";
name = Regular;
paths = (
{
closed = 1;
nodes = (
"28 781 LINE",
"41 926 OFFCURVE",
"99 999 OFFCURVE",
"201 999 CURVE SMOOTH",
"234 999 OFFCURVE",
"278 984 OFFCURVE",
"335 953 CURVE SMOOTH",
"391 923 OFFCURVE",
"429 906 OFFCURVE",
"448 906 CURVE SMOOTH",
"491 906 OFFCURVE",
"520 938 OFFCURVE",
"535 1001 CURVE",
"621 1001 LINE",
"607 856 OFFCURVE",
"549 783 OFFCURVE",
"448 783 CURVE SMOOTH",
"416 783 OFFCURVE",
"373 798 OFFCURVE",
"318 830 CURVE SMOOTH",
"262 860 OFFCURVE",
"224 876 OFFCURVE",
"201 876 CURVE SMOOTH",
"156 876 OFFCURVE",
"128 845 OFFCURVE",
"113 781 CURVE"
);
}
);
width = 600;
}
);
},
{
glyphname = uni030F;
lastChange = "2012-07-29 01:59:48 +0000";
layers = (
{
anchors = (
{
name = _top;
position = "{283.5, 500}";
}
);
layerId = "C6C3B4F4-9047-4AEA-9672-C83927A9B560";
name = Regular;
paths = (
{
closed = 1;
nodes = (
"588 787 LINE",
"505 787 LINE",
"468 817 OFFCURVE",
"419 866 OFFCURVE",
"378 915 CURVE SMOOTH",
"334 963 OFFCURVE",
"297 1010 OFFCURVE",
"279 1040 CURVE",
"279 1057 LINE",
"443 1057 LINE",
"461 1020 OFFCURVE",
"486 974 OFFCURVE",
"511 929 CURVE SMOOTH",
"537 885 OFFCURVE",
"564 841 OFFCURVE",
"588 808 CURVE"
);
},
{
closed = 1;
nodes = (
"289 787 LINE",
"205 787 LINE",
"168 817 OFFCURVE",
"119 866 OFFCURVE",
"78 915 CURVE SMOOTH",
"34 963 OFFCURVE",
"-2 1010 OFFCURVE",
"-21 1040 CURVE",
"-21 1057 LINE",
"143 1057 LINE",
"161 1020 OFFCURVE",
"186 974 OFFCURVE",
"211 929 CURVE SMOOTH",
"237 885 OFFCURVE",
"264 841 OFFCURVE",
"289 808 CURVE"
);
}
);
width = 600;
}
);
},
{
glyphname = uni02BC;
lastChange = "2012-07-28 23:52:14 +0000";
layers = (
{
layerId = "C6C3B4F4-9047-4AEA-9672-C83927A9B560";
name = Regular;
paths = (
{
closed = 1;
nodes = (
"450 935 LINE",
"462 917 LINE",
"431 800 OFFCURVE",
"383 668 OFFCURVE",
"317 522 CURVE",
"186 522 LINE",
"221 668 OFFCURVE",
"249 806 OFFCURVE",
"269 935 CURVE"
);
}
);
width = 600;
}
);
},
{
glyphname = acute;
lastChange = "2012-07-29 01:59:48 +0000";
layers = (
{
anchors = (
{
name = _top;
position = "{325.5, 500}";
}
);
layerId = "C6C3B4F4-9047-4AEA-9672-C83927A9B560";
name = Regular;
paths = (
{
closed = 1;
nodes = (
"163 808 LINE",
"215 882 OFFCURVE",
"263 965 OFFCURVE",
"307 1057 CURVE",
"488 1057 LINE",
"488 1040 LINE",
"426 945 OFFCURVE",
"351 860 OFFCURVE",
"263 787 CURVE",
"163 787 LINE"
);
}
);
width = 600;
}
);
unicode = 00B4;
},
{
glyphname = breve;
lastChange = "2012-07-29 01:59:48 +0000";
layers = (
{
anchors = (
{
name = _top;
position = "{325, 500}";
}
);
layerId = "C6C3B4F4-9047-4AEA-9672-C83927A9B560";
name = Regular;
paths = (
{
closed = 1;
nodes = (
"574 1011 LINE",
"564 872 OFFCURVE",
"471 782 OFFCURVE",
"321 782 CURVE SMOOTH",
"167 782 OFFCURVE",
"85 858 OFFCURVE",
"76 1011 CURVE",
"166 1011 LINE",
"174 928 OFFCURVE",
"209 908 OFFCURVE",
"323 908 CURVE SMOOTH",
"423 908 OFFCURVE",
"475 942 OFFCURVE",
"481 1011 CURVE"
);
}
);
width = 600;
}
);
unicode = 02D8;
},
{
glyphname = caron;
lastChange = "2012-07-29 01:59:48 +0000";
layers = (
{
anchors = (
{
name = _top;
position = "{325.5, 500}";
}
);
layerId = "C6C3B4F4-9047-4AEA-9672-C83927A9B560";
name = Regular;
paths = (
{
closed = 1;
nodes = (
"600 1036 LINE",
"585 1019 OFFCURVE",
"570 1000 OFFCURVE",
"551 980 CURVE SMOOTH",
"473 893 OFFCURVE",
"424 828 OFFCURVE",
"405 787 CURVE",
"246 787 LINE",
"227 828 OFFCURVE",
"178 893 OFFCURVE",
"101 980 CURVE SMOOTH",
"51 1036 LINE",
"51 1057 LINE",
"151 1057 LINE",
"196 1027 OFFCURVE",
"254 977 OFFCURVE",
"325 903 CURVE",
"392 973 OFFCURVE",
"451 1026 OFFCURVE",
"500 1057 CURVE",
"600 1057 LINE"
);
}
);
width = 600;
}
);
unicode = 02C7;
},
{
glyphname = cedilla;
lastChange = "2012-07-29 01:59:48 +0000";
layers = (
{
anchors = (
{
name = _bottom;
position = "{325.5, 0}";
}
);
layerId = "C6C3B4F4-9047-4AEA-9672-C83927A9B560";
name = Regular;
paths = (
{
closed = 1;
nodes = (
"171 165 LINE",
"190 161 OFFCURVE",
"212 159 OFFCURVE",
"238 159 CURVE SMOOTH",
"321 159 OFFCURVE",
"362 185 OFFCURVE",
"362 236 CURVE SMOOTH",
"362 276 OFFCURVE",
"315 307 OFFCURVE",
"221 329 CURVE",
"295 475 LINE",
"394 475 LINE",
"348 379 LINE",
"436 358 OFFCURVE",
"480 312 OFFCURVE",
"480 237 CURVE SMOOTH",
"480 124 OFFCURVE",
"400 67 OFFCURVE",
"240 67 CURVE SMOOTH",
"221 67 OFFCURVE",
"198 70 OFFCURVE",
"171 76 CURVE"
);
}
);
width = 600;
}
);
unicode = 00B8;
},
{
glyphname = circumflex;
lastChange = "2012-07-29 01:59:48 +0000";
layers = (
{
anchors = (
{
name = _top;
position = "{325.5, 500}";
}
);
layerId = "C6C3B4F4-9047-4AEA-9672-C83927A9B560";
name = Regular;
paths = (
{
closed = 1;
nodes = (
"600 787 LINE",
"500 787 LINE",
"452 817 OFFCURVE",
"394 868 OFFCURVE",
"325 940 CURVE",
"251 865 OFFCURVE",
"194 814 OFFCURVE",
"151 787 CURVE",
"51 787 LINE",
"51 808 LINE",
"66 825 OFFCURVE",
"81 844 OFFCURVE",
"101 864 CURVE SMOOTH",
"177 949 OFFCURVE",
"225 1014 OFFCURVE",
"246 1057 CURVE",
"405 1057 LINE",
"426 1014 OFFCURVE",
"474 949 OFFCURVE",
"551 864 CURVE SMOOTH",
"600 808 LINE"
);
}
);
width = 600;
}
);
unicode = 02C6;
},
{
glyphname = dieresis;
lastChange = "2012-07-29 01:59:48 +0000";
layers = (
{
anchors = (
{
name = _top;
position = "{324.5, 500}";
}
);
layerId = "C6C3B4F4-9047-4AEA-9672-C83927A9B560";
name = Regular;
paths = (
{
closed = 1;
nodes = (
"222 997 OFFCURVE",
"249 968 OFFCURVE",
"249 912 CURVE SMOOTH",
"249 855 OFFCURVE",
"222 827 OFFCURVE",
"169 827 CURVE SMOOTH",
"117 827 OFFCURVE",
"90 855 OFFCURVE",
"90 912 CURVE SMOOTH",
"90 968 OFFCURVE",
"117 997 OFFCURVE",
"169 997 CURVE SMOOTH"
);
},
{
closed = 1;
nodes = (
"532 997 OFFCURVE",
"559 968 OFFCURVE",
"559 912 CURVE SMOOTH",
"559 855 OFFCURVE",
"532 827 OFFCURVE",
"480 827 CURVE SMOOTH",
"427 827 OFFCURVE",
"400 855 OFFCURVE",
"400 912 CURVE SMOOTH",
"400 968 OFFCURVE",
"427 997 OFFCURVE",
"480 997 CURVE SMOOTH"
);
}
);
width = 600;
}
);
unicode = 00A8;
},
{
glyphname = dotaccent;
lastChange = "2012-07-29 01:59:48 +0000";
layers = (
{
anchors = (
{
name = _top;
position = "{325.5, 500}";
}
);
layerId = "C6C3B4F4-9047-4AEA-9672-C83927A9B560";
name = Regular;
paths = (
{
closed = 1;
nodes = (
"384 1007 OFFCURVE",
"413 975 OFFCURVE",
"413 912 CURVE SMOOTH",
"413 848 OFFCURVE",
"384 817 OFFCURVE",
"325 817 CURVE SMOOTH",
"267 817 OFFCURVE",
"238 848 OFFCURVE",
"238 912 CURVE SMOOTH",
"238 975 OFFCURVE",
"267 1007 OFFCURVE",
"325 1007 CURVE SMOOTH"
);
}
);
width = 600;
}
);
unicode = 02D9;
},
{
glyphname = grave;
lastChange = "2012-07-29 01:59:48 +0000";
layers = (
{
anchors = (
{
name = _top;
position = "{325.5, 500}";
}
);
layerId = "C6C3B4F4-9047-4AEA-9672-C83927A9B560";
name = Regular;
paths = (
{
closed = 1;
nodes = (
"488 787 LINE",
"388 787 LINE",
"296 865 OFFCURVE",
"221 949 OFFCURVE",
"163 1040 CURVE",
"163 1057 LINE",
"344 1057 LINE",
"391 959 OFFCURVE",
"440 877 OFFCURVE",
"488 808 CURVE"
);
}
);
width = 600;
}
);
unicode = 0060;
},
{
glyphname = hungarumlaut;
lastChange = "2012-07-29 01:59:48 +0000";
layers = (
{
anchors = (
{
name = _top;
position = "{324.5, 500}";
}
);
layerId = "C6C3B4F4-9047-4AEA-9672-C83927A9B560";
name = Regular;
paths = (
{
closed = 1;
nodes = (
"20 808 LINE",
"73 882 OFFCURVE",
"120 965 OFFCURVE",
"165 1057 CURVE",
"329 1057 LINE",
"329 1040 LINE",
"266 945 OFFCURVE",
"192 860 OFFCURVE",
"103 787 CURVE",
"20 787 LINE"
);
},
{
closed = 1;
nodes = (
"320 808 LINE",
"368 874 OFFCURVE",
"416 957 OFFCURVE",
"464 1057 CURVE",
"629 1057 LINE",
"629 1040 LINE",
"566 945 OFFCURVE",
"492 860 OFFCURVE",
"403 787 CURVE",
"320 787 LINE"
);
}
);
width = 600;
}
);
unicode = 02DD;
},
{
glyphname = macron;
lastChange = "2012-07-29 01:59:48 +0000";
layers = (
{
anchors = (
{
name = _top;
position = "{324.5, 500}";
}
);
layerId = "C6C3B4F4-9047-4AEA-9672-C83927A9B560";
name = Regular;
paths = (
{
closed = 1;
nodes = (
"87 895 LINE",
"562 895 LINE",
"562 771 LINE",
"87 771 LINE"
);
}
);
width = 600;
}
);
unicode = 00AF;
},
{
glyphname = ogonek;
lastChange = "2012-07-29 01:59:48 +0000";
layers = (
{
anchors = (
{
name = _ogonek;
position = "{491, 10}";
}
);
layerId = "C6C3B4F4-9047-4AEA-9672-C83927A9B560";
name = Regular;
paths = (
{
closed = 1;
nodes = (
"491 121 LINE",
"451 108 OFFCURVE",
"408 102 OFFCURVE",
"362 102 CURVE SMOOTH",
"231 102 OFFCURVE",
"160 166 OFFCURVE",
"160 269 CURVE SMOOTH",
"160 348 OFFCURVE",
"212 418 OFFCURVE",
"317 477 CURVE",
"425 477 LINE",
"331 409 OFFCURVE",
"285 343 OFFCURVE",
"285 281 CURVE SMOOTH",
"285 228 OFFCURVE",
"320 202 OFFCURVE",
"390 202 CURVE SMOOTH",
"426 202 OFFCURVE",
"460 205 OFFCURVE",
"491 214 CURVE"
);
}
);
width = 600;
}
);
unicode = 02DB;
},
{
glyphname = ring;
lastChange = "2012-07-29 01:59:48 +0000";
layers = (
{
anchors = (
{
name = _top;
position = "{324.5, 500}";
}
);
layerId = "C6C3B4F4-9047-4AEA-9672-C83927A9B560";
name = Regular;
paths = (
{
closed = 1;
nodes = (
"209 796 OFFCURVE",
"138 864 OFFCURVE",
"138 973 CURVE SMOOTH",
"138 1082 OFFCURVE",
"209 1150 OFFCURVE",
"321 1150 CURVE SMOOTH",
"433 1150 OFFCURVE",
"511 1079 OFFCURVE",
"511 975 CURVE SMOOTH",
"511 867 OFFCURVE",
"435 796 OFFCURVE",
"321 796 CURVE SMOOTH"
);
},
{
closed = 1;
nodes = (
"268 1067 OFFCURVE",
"229 1032 OFFCURVE",
"229 973 CURVE SMOOTH",
"229 911 OFFCURVE",
"260 879 OFFCURVE",
"321 879 CURVE SMOOTH",
"377 879 OFFCURVE",
"415 914 OFFCURVE",
"415 973 CURVE SMOOTH",
"415 1032 OFFCURVE",
"377 1067 OFFCURVE",
"321 1067 CURVE SMOOTH"
);
}
);
width = 600;
}
);
unicode = 02DA;
},
{
glyphname = tilde;
lastChange = "2012-07-29 01:59:48 +0000";
layers = (
{
anchors = (
{
name = _top;
position = "{324.5, 500}";
}
);
layerId = "C6C3B4F4-9047-4AEA-9672-C83927A9B560";
name = Regular;
paths = (
{
closed = 1;
nodes = (
"28 781 LINE",
"41 926 OFFCURVE",
"99 999 OFFCURVE",
"201 999 CURVE SMOOTH",
"234 999 OFFCURVE",
"278 984 OFFCURVE",
"335 953 CURVE SMOOTH",
"391 923 OFFCURVE",
"429 906 OFFCURVE",
"448 906 CURVE SMOOTH",
"491 906 OFFCURVE",
"520 938 OFFCURVE",
"535 1001 CURVE",
"621 1001 LINE",
"607 856 OFFCURVE",
"549 783 OFFCURVE",
"448 783 CURVE SMOOTH",
"416 783 OFFCURVE",
"373 798 OFFCURVE",
"318 830 CURVE SMOOTH",
"262 860 OFFCURVE",
"224 876 OFFCURVE",
"201 876 CURVE SMOOTH",
"156 876 OFFCURVE",
"128 845 OFFCURVE",
"113 781 CURVE"
);
}
);
width = 600;
}
);
unicode = 02DC;
},
{
glyphname = tonos;
lastChange = "2012-07-29 01:59:48 +0000";
layers = (
{
anchors = (
{
name = _top;
position = "{324.5, 500}";
}
);
layerId = "C6C3B4F4-9047-4AEA-9672-C83927A9B560";
name = Regular;
paths = (
{
closed = 1;
nodes = (
"213 808 LINE",
"239 897 LINE SMOOTH",
"255 960 OFFCURVE",
"266 1014 OFFCURVE",
"271 1057 CURVE",
"436 1057 LINE",
"436 1040 LINE SMOOTH",
"436 1023 OFFCURVE",
"370 878 OFFCURVE",
"303 787 CURVE",
"213 787 LINE"
);
}
);
width = 600;
}
);
unicode = 0384;
},
